<svg width="239" height="276" viewBox="0 0 239 276" fill="none" xmlns="http://www.w3.org/2000/svg">
<g opacity="0.1">
<path d="M167.946 199.658C159.519 202.709 149.203 202.273 142.811 200.53C124.649 195.59 109.539 182.078 99.9498 171.762C88.1813 158.977 77.8657 142.995 71.7634 128.03C63.1913 107.253 61.0119 84.7329 65.2254 64.3922C67.2594 55.0936 70.3105 48.7008 74.9598 44.342C76.9938 42.308 79.6091 40.8551 82.2243 39.838C87.3095 38.0945 92.3947 38.3851 96.3175 40.8551C103.727 45.5044 104.744 55.5294 103.437 62.6487C102.71 66.5715 101.403 70.3491 100.095 73.9814C98.9328 77.4684 97.6252 81.1006 96.8987 84.7329C94.7194 95.9203 97.7704 108.561 105.035 118.586C110.992 126.722 120.291 134.422 129.444 138.636C133.221 140.379 136.999 141.832 140.631 143.14C143.537 144.157 146.443 145.319 149.349 146.481C154.579 148.661 158.647 151.131 162.28 153.891C171.288 160.865 180.877 172.489 180.441 184.257C180.441 191.376 176.082 196.752 167.946 199.658ZM82.9508 41.7268C80.4808 42.5986 78.1562 44.0515 76.4127 45.795C72.054 49.8631 69.2935 55.9653 67.4047 64.828C63.1913 84.7329 65.3706 106.962 73.7975 127.158C89.6342 165.66 120.872 192.103 143.537 198.35C149.349 199.949 159.374 200.384 167.365 197.624C172.45 195.88 178.407 191.958 178.697 184.112C178.988 173.215 169.544 161.882 161.408 155.49C157.921 152.729 153.998 150.55 148.913 148.37C146.152 147.208 143.101 146.046 140.341 145.029C136.563 143.721 132.786 142.268 129.008 140.525C119.564 136.166 109.975 128.175 103.727 119.748C96.1723 109.287 92.9759 96.0656 95.1552 84.297C95.8817 80.5195 97.1893 76.8872 98.3516 73.2549C99.6593 69.6227 100.822 65.9904 101.548 62.2128C102.71 55.82 101.839 46.812 95.4458 42.5986C91.9589 40.4192 87.4548 40.1286 82.9508 41.7268Z" fill="url(#paint0_linear_88_16071)"/>
<path d="M170.125 206.922C166.348 208.23 161.989 209.102 157.63 209.247C152.4 209.392 146.879 208.811 142.084 207.358C137.144 205.905 132.64 204.452 127.555 202.564C118.838 199.222 110.556 195.009 102.856 189.923C93.5571 183.821 85.5662 176.847 79.0281 169.147C67.986 156.071 62.1743 141.251 59.2685 131.081C52.7304 108.27 52.0039 86.6216 57.0891 66.8621C58.6873 60.7599 61.4479 51.8971 67.4048 45.5043C70.02 42.7438 73.2164 40.7097 76.7034 39.4021C80.9168 37.9492 85.2755 37.8039 88.7625 39.2568C96.1723 42.1626 98.9329 50.1536 99.0782 56.6917C99.0782 60.0334 98.6423 63.2298 98.2064 66.7168C97.7705 69.9132 97.3347 73.2549 97.3347 76.7418C97.3347 80.6647 97.7705 85.0234 98.9328 89.6727C100.676 97.2279 103.582 104.783 107.505 111.466C107.796 111.902 107.941 112.338 108.231 112.774C111.283 117.714 115.06 122.218 120 126.577C121.598 128.03 123.342 129.482 125.231 130.79C127.846 132.679 130.461 134.277 133.076 135.73C137.144 137.909 141.213 139.653 145.281 141.396C148.186 142.704 151.238 143.866 154.143 145.319C155.887 146.191 157.34 146.917 158.793 147.644C162.134 149.533 165.186 151.567 167.801 153.746C177.245 161.592 186.979 174.377 186.543 187.163C186.107 196.316 180.296 203.29 170.125 206.922ZM77.5752 41.2909C74.3788 42.4532 71.4729 44.342 69.1482 46.8119C63.4819 52.7689 60.8667 61.341 59.2685 67.2979C54.3286 86.7669 55.055 107.979 61.4478 130.499C65.516 144.593 72.3446 157.959 80.7715 167.839C87.1643 175.394 95.01 182.223 104.163 188.18C111.718 193.12 120 197.333 128.427 200.53C133.367 202.418 137.871 203.871 142.665 205.324C147.315 206.632 152.545 207.358 157.63 207.068C161.699 206.922 165.912 206.196 169.399 204.888C174.775 203 183.928 198.06 184.364 187.163C184.8 175.249 175.356 163.045 166.348 155.489C163.733 153.31 160.827 151.421 157.63 149.533C156.177 148.806 154.725 147.934 153.126 147.208C150.221 145.755 147.315 144.593 144.409 143.285C140.341 141.542 136.127 139.798 132.059 137.619C129.299 136.166 126.538 134.422 123.923 132.534C122.034 131.081 120.145 129.628 118.547 128.175C113.462 123.671 109.539 119.021 106.488 113.791C106.197 113.355 105.907 112.919 105.762 112.483C101.839 105.655 98.7876 97.809 96.8988 89.9633C95.7365 85.1687 95.3006 80.5194 95.3006 76.4513C95.3006 72.819 95.7365 69.332 96.1724 66.1356C96.6082 62.7939 97.0441 59.5975 97.0441 56.4011C96.8988 50.5895 94.5742 43.6155 88.1814 41.0003C84.985 39.838 81.3527 39.9833 77.5752 41.2909Z" fill="url(#paint1_linear_88_16071)"/>
<path d="M172.451 214.042C168.382 215.495 163.878 216.366 159.374 216.512C153.417 216.657 147.17 215.931 141.213 214.042C137.435 212.879 133.803 211.862 130.171 210.845L124.65 209.247C113.462 206.051 104.309 202.564 95.737 198.35C84.259 192.684 74.8151 185.71 67.4053 177.719C53.8932 163.045 48.6627 144.012 46.9192 133.987C42.5605 110.014 43.287 88.8011 49.0986 69.0416C51.1327 62.0676 54.1838 53.2049 60.1407 46.3762C63.3371 42.7439 67.4053 39.8381 71.764 38.3852C75.1057 37.2229 78.4474 36.9323 81.3532 37.3682C87.746 38.5305 92.5406 43.3251 94.7199 50.299C95.737 53.4954 96.1728 56.9824 96.6087 60.4694C96.8993 62.9394 97.1898 65.5546 97.771 68.4604C98.4975 72.0927 99.6598 76.4514 101.258 81.6819C103.873 90.1087 107.215 98.3903 110.702 105.364C110.993 105.8 111.138 106.381 111.428 106.817C114.334 112.629 117.966 117.423 123.052 122.363C124.65 123.961 126.539 125.56 128.427 127.158C131.043 129.337 133.803 131.226 136.564 132.824C140.922 135.439 145.426 137.619 149.93 139.653C152.836 141.106 155.887 142.559 158.648 144.012C160.391 145.029 161.99 145.9 163.588 146.772C167.22 148.952 170.271 151.131 173.177 153.601C177.972 157.669 193.227 172.489 192.501 189.924C191.774 200.966 184.364 209.828 172.451 214.042ZM72.3451 40.4193C68.4223 41.8722 64.6447 44.4874 61.7389 47.8291C56.0726 54.3672 53.1668 62.9394 51.1327 69.6227C45.4664 89.0917 44.7399 110.014 49.0986 133.551C50.8421 143.285 55.9272 161.882 69.1487 176.121C76.4132 183.967 85.7119 190.65 96.8993 196.316C105.326 200.53 114.334 203.871 125.376 207.213L130.897 208.811C134.53 209.828 138.162 210.991 142.085 212.008C147.896 213.751 153.853 214.478 159.665 214.332C163.878 214.187 168.237 213.461 172.015 212.008C183.202 208.085 189.885 199.949 190.321 189.924C191.048 173.506 176.373 159.267 171.724 155.344C168.964 153.02 165.912 150.84 162.425 148.661C160.973 147.789 159.374 146.917 157.631 145.9C154.725 144.448 151.819 142.995 148.913 141.542C144.409 139.362 139.905 137.183 135.401 134.568C132.496 132.824 129.735 130.935 126.975 128.756C124.94 127.158 123.052 125.414 121.453 123.816C116.223 118.586 112.591 113.646 109.54 107.689C109.249 107.253 109.104 106.672 108.813 106.236C105.326 99.1168 101.984 90.8352 99.2239 82.263C97.4804 76.8873 96.3181 72.5285 95.5916 68.751C95.0105 65.8452 94.7199 63.2299 94.4293 60.76C93.9935 57.1277 93.5576 53.9313 92.6858 50.8802C91.5235 47.2479 88.6177 40.8551 80.9173 39.4022C78.3021 38.9664 75.3962 39.4022 72.3451 40.4193Z" fill="url(#paint2_linear_88_16071)"/>
<path d="M174.921 221.306C170.562 222.905 165.913 223.776 161.263 223.922C154.58 224.067 147.606 223.05 140.487 221.016C134.53 219.272 129.009 217.819 121.744 216.221C109.394 213.461 98.9335 210.845 88.7632 206.923C75.1058 201.692 64.3544 195.009 55.7822 186.437C39.9455 170.455 35.5868 148.661 34.4244 137.183C32.0998 113.355 34.1338 91.8522 40.8172 71.6568C43.4324 63.9564 46.7741 54.9484 52.4404 47.6838C56.218 42.8892 61.4485 39.1117 66.679 37.2229C69.0037 36.3512 71.3283 35.9153 73.3624 35.9153C79.9004 35.9153 85.5668 38.6758 89.635 44.1969C92.6861 48.265 94.5749 52.9143 97.1901 59.4524L97.6259 60.4694C98.3524 62.5035 99.2241 64.5376 100.241 66.8622C101.113 69.1869 102.13 71.5115 103.147 74.1268C104.019 76.3061 104.89 78.4855 105.762 80.6649C108.232 86.9124 110.847 93.4505 113.463 99.5527L113.608 99.8432C113.753 100.279 114.044 100.715 114.189 101.151C117.095 107.689 120.582 112.919 125.667 118.44C127.265 120.184 129.154 121.927 131.188 123.816C133.949 126.141 136.709 128.32 139.76 130.209C144.41 133.26 149.349 135.875 154.144 138.491C157.05 140.089 159.956 141.542 162.861 143.285C164.75 144.302 166.494 145.319 167.947 146.336C171.724 148.661 174.921 151.276 177.972 153.891C191.048 165.805 198.458 180.48 197.877 193.265C197.441 205.906 188.723 216.367 174.921 221.306ZM67.5507 39.1117C62.6108 40.8552 57.8163 44.4874 54.3293 48.8462C48.8082 55.8201 45.4665 64.5376 42.9965 72.0927C36.4585 91.9975 34.2791 113.21 36.7491 136.747C37.9114 147.935 41.9795 169.147 57.3804 184.693C65.6619 192.975 76.1229 199.513 89.4896 204.743C99.66 208.666 109.83 211.281 122.18 214.042C129.445 215.64 135.111 217.093 141.068 218.836C148.042 220.871 154.725 221.888 161.118 221.742C165.622 221.597 169.981 220.725 174.194 219.272C187.125 214.623 195.261 204.889 195.843 192.975C196.424 180.916 189.304 166.822 176.664 155.344C173.758 152.729 170.562 150.259 166.93 147.935C165.331 146.917 163.733 145.9 161.845 144.883C158.939 143.285 156.033 141.687 153.127 140.089C148.332 137.474 143.247 134.858 138.598 131.807C135.547 129.773 132.641 127.594 129.881 125.269C127.701 123.38 125.812 121.637 124.214 119.748C118.838 113.936 115.351 108.706 112.3 101.877C112.155 101.441 111.864 101.006 111.719 100.57L111.574 100.279C108.959 94.1769 106.343 87.6388 103.873 81.246C103.002 79.0667 102.13 76.8873 101.258 74.7079C100.241 72.238 99.2242 69.768 98.3524 67.4434C97.4807 65.1187 96.6089 63.0847 95.7372 61.0506L95.3012 60.0336C92.8313 53.6408 90.9425 48.9915 88.0367 45.2139C84.2591 40.1287 79.3193 37.6588 73.3624 37.6588C71.7642 37.9494 69.7301 38.3852 67.5507 39.1117Z" fill="url(#paint3_linear_88_16071)"/>
<path d="M177.536 228.571C172.887 230.169 168.092 231.186 163.152 231.331C155.888 231.477 148.042 230.314 139.761 227.844C132.932 225.81 126.975 224.357 118.839 223.05L115.788 222.469C104.019 220.435 92.977 218.546 81.7896 215.204C66.0982 210.555 53.7485 203.871 44.3046 194.863C30.9378 182.078 22.8015 162.173 22.2204 140.089C21.6392 116.987 25.1262 95.3391 32.9719 73.836C36.1683 65.2639 39.8006 56.1106 45.3216 48.7007C49.9709 42.4532 56.2184 37.5133 62.6112 35.1887C63.7735 34.7528 64.9359 34.4622 66.0982 34.1716C72.9269 32.864 79.3197 34.0264 85.2766 37.9492C89.9259 41.0003 93.8488 45.2138 98.0622 52.333C100.823 56.6917 103.293 61.4863 105.617 66.1356C109.685 74.8531 113.318 84.4423 116.805 93.4503L116.95 93.7409C117.095 94.3221 117.386 94.7579 117.531 95.3391C120.437 102.894 123.633 108.125 128.864 114.372C130.607 116.406 132.351 118.295 134.53 120.329C137.291 122.944 140.342 125.269 143.393 127.448C148.478 130.935 153.709 133.986 158.939 137.038C161.845 138.636 164.751 140.379 167.657 142.123C169.691 143.285 171.434 144.447 173.032 145.61C176.955 148.225 180.442 150.985 183.493 153.891C190.031 160.139 204.996 176.557 203.979 196.171C202.962 210.7 192.937 223.05 177.536 228.571ZM63.1924 37.2228C57.2355 39.4021 51.2785 44.0514 46.9198 50.0084C41.544 57.2729 37.9118 66.1356 34.8607 74.7078C27.1603 95.9203 23.6733 117.278 24.2545 140.089C24.8356 161.592 32.6814 181.061 45.6122 193.41C54.7656 202.128 66.8246 208.666 82.2255 213.17C93.2676 216.512 104.31 218.4 115.933 220.289L118.984 220.87C127.12 222.323 133.368 223.776 140.197 225.81C148.188 228.28 155.888 229.443 162.862 229.152C167.511 229.007 172.16 228.135 176.665 226.537C191.194 221.306 200.783 209.683 201.655 196.026C202.672 177.283 188.143 161.301 181.895 155.344C178.844 152.438 175.502 149.823 171.725 147.208C170.126 146.046 168.383 145.029 166.349 143.721C163.443 141.977 160.537 140.234 157.777 138.636C152.546 135.585 147.17 132.534 142.085 128.901C138.889 126.722 135.838 124.252 132.932 121.491C130.753 119.457 128.864 117.423 127.12 115.389C121.745 109.142 118.403 103.475 115.352 95.775C115.207 95.1938 114.916 94.7579 114.771 94.1768L114.625 93.8862C111.284 84.8782 107.651 75.4342 103.583 66.7168C101.404 62.0675 98.934 57.4182 96.1734 53.0595C91.96 46.2308 88.473 42.3079 83.969 39.4021C78.4479 35.7698 72.6363 34.6075 66.3888 35.9151C65.3718 36.4963 64.3547 36.7869 63.1924 37.2228Z" fill="url(#paint4_linear_88_16071)"/>
<path d="M180.151 235.836C175.211 237.579 170.126 238.596 164.895 238.741C156.904 238.887 148.477 237.579 138.888 234.673C131.478 232.349 124.795 231.041 115.787 229.879C112.591 229.443 109.394 229.007 106.198 228.716C95.7368 227.409 84.9853 226.101 74.5244 223.776C56.7989 219.708 42.9963 213.17 32.5354 203.581C17.4251 189.924 8.85296 167.258 9.7247 143.285C10.4512 121.782 15.391 99.8433 24.6896 76.4515C28.3219 67.4434 32.2448 57.9995 37.7658 50.0085C42.9963 42.3081 50.5514 36.0606 58.3971 32.8642C58.833 32.7189 59.2688 32.5736 59.7047 32.4283C66.2428 30.1037 73.0715 30.1037 80.4814 32.2831C87.1647 34.3171 92.831 38.24 98.2068 44.6328C101.694 48.7009 104.89 53.4955 107.796 58.726C112.009 66.5717 115.787 75.725 119.71 87.7842L119.855 88.0747C120 88.6559 120.146 89.0918 120.436 89.6729C123.197 98.0998 126.248 103.766 131.624 110.45C133.367 112.629 135.256 114.808 137.435 116.988C140.341 119.748 143.392 122.509 146.589 124.833C151.964 128.901 157.776 132.388 163.297 135.875C166.058 137.619 168.963 139.362 171.869 141.251C173.903 142.559 175.792 143.866 177.536 145.029C181.604 147.935 185.236 150.986 188.432 154.037C202.671 167.985 210.371 184.548 209.5 199.368C208.628 215.35 197.005 229.733 180.151 235.836ZM60.4311 34.1718C59.9953 34.3171 59.7047 34.4624 59.2688 34.6077C51.859 37.6588 44.5945 43.6157 39.6546 50.8803C34.2788 58.726 30.356 68.0246 26.869 76.8873C17.7157 100.134 12.7758 121.782 12.0493 142.995C11.1776 166.387 19.4592 188.325 34.1335 201.692C44.3039 210.991 57.6707 217.384 75.1056 221.306C85.4212 223.631 96.1727 224.939 106.488 226.246C109.685 226.682 112.881 226.973 116.078 227.409C125.086 228.571 131.914 230.024 139.469 232.349C148.768 235.254 157.05 236.417 164.75 236.271C169.69 236.126 174.63 235.254 179.279 233.511C195.406 227.844 206.448 214.187 207.465 198.786C208.337 184.548 200.927 168.711 187.125 155.054C183.928 152.003 180.296 148.952 176.373 146.191C174.63 145.029 172.886 143.721 170.707 142.414C167.946 140.525 165.041 138.781 162.135 137.038C156.468 133.551 150.657 129.918 145.136 125.85C141.794 123.38 138.598 120.62 135.692 117.714C133.513 115.535 131.478 113.21 129.59 111.031C124.069 104.057 120.872 98.3904 117.966 89.6729C117.821 89.0918 117.676 88.6559 117.385 88.0747L117.24 87.7842C113.317 75.8703 109.539 66.717 105.471 59.0166C102.711 53.9314 99.5144 49.2821 96.1727 45.3592C90.9423 39.257 85.7118 35.6247 79.4643 33.736C72.9262 31.9925 66.5334 31.9925 60.4311 34.1718Z" fill="url(#paint5_linear_88_16071)"/>
<path d="M182.765 242.954C177.535 244.843 172.159 245.86 166.783 246.005C158.211 246.296 148.767 244.698 138.161 241.501C130.025 239.032 122.76 237.579 112.88 236.562C108.086 236.126 103.146 235.69 98.3513 235.399C88.1809 234.673 77.72 233.801 67.5496 232.058C47.7901 228.716 32.5345 222.178 21.0566 212.153C0.861133 194.573 -4.36935 166.677 -2.48057 146.336C-0.591792 126.141 5.07457 105.945 16.6978 78.7757L16.9884 78.1946C20.9113 69.0412 24.9794 59.4521 30.3552 51.0252C35.8763 42.453 43.4313 35.1885 50.8412 31.2656C58.6869 27.1975 67.1137 25.454 75.6859 26.3257C84.258 27.0522 91.6679 30.5392 98.3513 36.4961C102.565 40.419 106.488 45.2136 109.829 50.7346C114.914 59.0162 118.983 69.1865 122.615 81.5363L122.76 81.9721C122.905 82.5533 123.051 82.9892 123.196 83.5703C125.521 91.5613 128.136 97.8088 134.238 105.945C135.982 108.27 138.016 110.594 140.195 112.919C143.101 115.97 146.297 118.876 149.784 121.637C155.596 126.141 161.698 130.209 167.8 134.132C170.561 135.875 173.467 137.764 176.227 139.653C178.407 141.105 180.295 142.558 182.184 143.866C186.398 146.917 190.175 150.259 193.662 153.601C213.857 173.941 215.892 192.684 215.165 201.837C214.293 220.289 201.508 236.416 182.765 242.954ZM57.6699 30.5392C55.7811 31.2656 53.747 32.1374 52.0035 33.0091C44.7389 36.7867 37.6197 43.7606 32.244 52.0422C26.8682 60.3238 22.9453 69.7677 19.0225 78.921L18.7319 79.5022C7.10868 106.381 1.44228 126.431 -0.301211 146.336C-2.0447 166.096 2.8952 193.265 22.5095 210.409C33.6969 220.144 48.5165 226.536 67.9855 229.878C78.1558 231.622 88.6168 232.493 98.6419 233.22C103.436 233.656 108.376 233.946 113.316 234.382C123.196 235.399 130.751 236.852 139.033 239.322C149.348 242.518 158.502 243.971 166.929 243.826C172.159 243.681 177.244 242.664 182.329 240.92C200.2 234.527 212.405 219.272 213.567 201.982C214.148 193.12 212.114 175.104 192.645 155.344C189.303 152.002 185.526 148.806 181.458 145.755C179.714 144.447 177.825 143.14 175.646 141.541C172.886 139.653 169.98 137.764 167.219 136.02C161.117 132.097 154.869 128.029 149.058 123.38C145.571 120.619 142.229 117.568 139.323 114.517C136.999 112.193 134.965 109.723 133.076 107.253C126.683 98.8259 124.068 92.4331 121.598 84.1515C121.453 83.5703 121.307 83.1345 121.162 82.5533L121.017 82.1174C117.53 69.913 113.462 60.0332 108.522 51.7516C105.18 46.3759 101.548 41.7266 97.3342 37.949C90.9414 32.1374 83.9675 28.941 75.9765 28.2145C69.4384 27.6334 63.4815 28.3598 57.6699 30.5392Z" fill="url(#paint6_linear_88_16071)"/>
<path d="M185.526 250.219C180.005 252.108 174.339 253.27 168.673 253.416C159.229 253.706 149.349 251.963 137.581 248.33C128.718 245.57 121.017 244.117 110.121 243.39C103.873 242.955 97.4803 242.664 91.378 242.519C81.2077 242.083 70.7467 241.792 60.5764 240.485C38.7827 237.724 22.0742 231.331 9.57924 220.725C-9.01799 205.034 -18.6071 176.993 -14.6843 149.387C-11.1973 124.833 -0.59112 101.732 8.85279 81.2459C9.57924 79.793 10.1604 78.3401 10.8869 76.8872C14.6645 68.6056 18.5873 60.0335 23.2366 52.1878C29.0482 42.5986 36.0222 34.8981 43.7226 29.813C52.0042 24.1466 61.5934 20.9502 71.4732 20.5144C81.6435 20.0785 90.9421 22.839 98.9331 28.6506C104.018 32.4282 108.668 37.2228 112.445 43.1797C118.257 51.8972 122.761 62.794 126.102 75.7249L126.684 78.0495C129.008 87.0575 131.478 93.5956 137.726 102.168C139.615 104.783 141.649 107.253 143.973 109.723C146.879 112.919 150.221 115.97 153.853 119.167C159.955 124.252 166.639 128.901 173.177 133.26C175.937 135.149 178.698 137.038 181.313 138.926C183.638 140.525 185.672 142.123 187.561 143.43C191.919 146.627 195.842 150.259 199.474 154.037C208.482 163.335 223.157 182.368 221.559 205.324C219.96 225.229 205.867 242.955 185.526 250.219ZM56.5082 25.3089C52.4401 26.7619 48.3719 28.7959 44.7396 31.2659C37.3298 36.2058 30.5011 43.7609 24.8348 53.0595C20.1855 60.7599 16.2627 69.3321 12.6304 77.4684C11.9039 78.9213 11.3227 80.3742 10.5963 81.8271C1.29768 102.168 -9.30855 125.269 -12.6502 149.387C-16.4278 176.266 -7.12917 203.581 10.8869 218.836C23.0913 229.152 39.5092 235.399 60.7216 238.16C70.892 239.468 81.353 239.904 91.378 240.194C97.4803 240.485 103.873 240.63 110.121 241.066C121.163 241.792 128.863 243.245 138.016 246.006C149.64 249.638 159.374 251.236 168.527 250.946C174.048 250.8 179.424 249.783 184.8 247.895C204.414 240.921 217.781 223.921 219.234 204.743C220.687 182.659 206.303 164.062 197.731 155.054C194.244 151.421 190.321 147.934 186.108 144.738C184.219 143.285 182.185 141.832 180.005 140.234C177.245 138.345 174.484 136.456 171.869 134.568C165.331 130.064 158.648 125.414 152.4 120.329C148.623 117.133 145.281 114.082 142.23 110.74C139.905 108.27 137.726 105.655 135.837 102.894C129.444 94.0315 126.974 87.3481 124.504 78.0495L123.923 75.7249C120.727 62.9393 116.223 52.333 110.556 43.7609C106.779 38.0945 102.42 33.4452 97.4802 29.813C89.9251 24.2919 81.0623 21.6767 71.3278 22.1125C66.2427 22.6937 61.3028 23.5655 56.5082 25.3089Z" fill="url(#paint7_linear_88_16071)"/>
<path d="M188.288 257.338C182.476 259.372 176.519 260.535 170.563 260.68C160.537 260.971 149.786 259.082 136.855 255.014C127.121 251.963 118.839 250.655 107.216 250.074C99.6606 249.638 91.9602 249.638 84.5504 249.638C74.38 249.638 63.7737 249.493 53.4581 248.621C29.7757 246.587 11.6143 240.194 -2.04304 229.007C-22.8196 212.008 -32.6993 181.932 -27.033 152.148C-23.1101 131.371 -13.9569 112.774 -4.2224 93.1597C-2.6242 89.818 -0.880674 86.6217 0.717525 83.28C2.17043 80.3741 3.47803 77.4683 4.78565 74.7078C8.12734 67.4433 11.7596 60.0334 15.6825 53.0595C21.6394 42.5985 28.6133 34.1717 36.0232 27.9242C41.6895 23.2749 47.9371 19.7879 54.7657 17.3179C58.6886 15.865 62.6115 14.9933 66.6796 14.4121C78.5934 12.6686 89.3449 14.7027 98.9341 20.5143C104.891 24.1466 110.122 29.0865 114.48 35.1887C121.018 44.342 125.813 55.82 128.864 69.4773L129.009 70.0585C129.155 70.6397 129.3 71.3661 129.445 71.9473C131.77 81.9723 134.094 88.6557 140.342 97.8091C142.231 100.57 144.41 103.33 146.735 105.945C149.786 109.432 153.128 112.774 157.05 116.116C163.589 121.782 170.708 126.867 177.682 131.807C180.297 133.696 183.057 135.585 185.673 137.619C188.143 139.362 190.177 140.96 192.211 142.559C196.715 146.046 200.783 149.823 204.561 153.891C220.543 170.89 228.534 190.214 227.226 208.23C225.628 229.878 209.936 249.638 188.288 257.338ZM55.4922 19.4973C48.9541 21.8219 42.8519 25.3089 37.3308 29.6676C30.0663 35.6246 23.3829 43.9061 17.426 54.2218C13.5031 61.1958 10.0161 68.6056 6.52916 75.7248C5.22154 78.6307 3.76865 81.5365 2.46103 84.4423C0.862835 87.784 -0.735401 91.1257 -2.47889 94.3221C-12.2134 113.791 -21.3667 132.243 -25.1442 152.729C-30.52 181.642 -21.0761 210.991 -0.880638 227.554C12.3408 238.451 30.2115 244.698 53.4581 246.732C63.7737 247.604 74.2347 247.604 84.2598 247.749C91.6696 247.749 99.37 247.749 107.07 248.185C118.839 248.766 127.411 250.074 137.291 253.27C150.076 257.338 160.537 259.082 170.272 258.791C176.084 258.646 181.75 257.629 187.416 255.595C208.338 248.185 223.448 229.152 224.901 208.23C226.499 184.693 211.68 165.079 202.672 155.49C199.04 151.567 194.971 147.789 190.613 144.447C188.724 142.995 186.544 141.396 184.22 139.508C181.605 137.619 178.844 135.585 176.229 133.696C169.255 128.756 161.99 123.526 155.452 117.859C151.529 114.372 148.042 111.031 144.991 107.544C142.667 104.783 140.487 102.022 138.453 99.262C131.915 89.8181 129.59 82.8441 127.266 72.6737C127.121 72.0926 126.975 71.5114 126.83 70.785L126.685 70.2038C123.634 56.837 118.984 45.5043 112.591 36.6416C108.378 30.6847 103.293 26.0354 97.6265 22.5484C88.4732 17.0273 78.1575 15.1386 66.8249 16.7368C63.0473 17.1726 59.2698 18.0444 55.4922 19.4973Z" fill="url(#paint8_linear_88_16071)"/>
<path d="M190.904 264.603C184.801 266.782 178.554 267.945 172.161 268.09C161.555 268.381 149.932 266.346 135.838 261.988C125.523 258.791 116.515 257.338 104.02 257.048C95.3023 256.757 86.5849 257.048 78.0127 257.193C67.5518 257.484 56.8003 257.774 46.0487 257.193C20.7681 255.886 0.572723 249.347 -13.9564 237.724C-36.6217 219.708 -46.9374 186.727 -39.6729 155.344C-35.3141 136.456 -25.725 119.167 -16.5717 102.313C-13.6658 96.9374 -10.4694 91.4163 -7.70887 85.75C-5.38422 81.3912 -3.20485 76.7419 -1.17078 72.3832C1.73503 66.281 4.78613 60.0335 7.98252 54.0766C14.3753 42.4533 21.0587 33.3 28.3232 26.326C35.4425 19.6426 44.1599 14.2669 53.4585 10.9252C56.2191 9.90814 59.1249 9.18169 61.8854 8.45523C75.2521 5.54942 88.0377 6.85703 98.9346 12.5234C105.618 16.0104 111.575 20.9502 116.515 27.343C123.779 36.7869 128.865 48.8461 131.77 63.3752C131.916 64.2469 132.061 65.1187 132.351 65.9904C134.531 77.0325 136.71 83.8612 143.103 93.5957C145.137 96.6468 147.316 99.5526 149.641 102.313C152.692 105.945 156.179 109.578 160.247 113.21C167.076 119.457 174.776 125.124 182.186 130.645C184.801 132.534 187.417 134.568 189.887 136.456C192.357 138.345 194.536 140.089 196.57 141.687C201.219 145.464 205.578 149.533 209.356 153.746C225.773 171.617 234.055 191.958 232.602 210.991C231.149 234.818 214.296 256.321 190.904 264.603ZM54.4756 13.1045C45.3223 16.3009 36.8954 21.5314 30.0667 28.0695C22.9475 34.8982 16.4094 43.7609 10.1619 55.2389C6.96548 61.1958 3.9144 67.4433 1.00858 73.4002C-1.17078 77.759 -3.35014 82.4083 -5.52951 86.767C-8.43533 92.288 -11.4865 97.9544 -14.3923 103.33C-23.5456 119.893 -32.9895 137.183 -37.3482 155.78C-44.3222 186.291 -34.2971 218.546 -12.3582 235.981C1.73502 247.168 21.4946 253.561 46.4846 254.868C57.0908 255.45 67.8423 255.159 78.158 254.868C86.7301 254.723 95.5929 254.433 104.31 254.723C117.096 255.014 126.104 256.467 136.71 259.808C150.658 264.167 161.991 266.056 172.306 265.911C178.409 265.765 184.511 264.603 190.323 262.569C212.843 254.578 229.26 233.801 230.859 210.991C232.166 192.539 224.175 172.779 208.048 155.344C204.27 151.131 199.912 147.208 195.408 143.576C193.374 141.978 191.194 140.234 188.724 138.345C186.109 136.456 183.639 134.422 181.024 132.534C173.614 127.013 165.914 121.346 158.94 114.953C154.872 111.176 151.239 107.544 148.188 103.911C145.864 101.151 143.539 98.0997 141.505 95.0486C134.967 85.0235 132.787 77.9043 130.463 66.7169C130.317 65.8451 130.172 64.9734 129.882 64.1016C126.976 49.8631 122.036 38.0946 115.062 28.9412C110.413 22.839 104.746 18.0444 98.2081 14.7027C87.7472 9.32698 75.5427 8.01936 62.6118 10.9252C59.8513 11.3611 57.0908 12.0875 54.4756 13.1045Z" fill="url(#paint9_linear_88_16071)"/>
<path d="M193.663 271.867C187.27 274.192 180.732 275.354 174.049 275.5C162.571 275.79 150.657 273.756 135.111 268.816C123.924 265.329 114.77 263.876 101.113 263.876C91.3785 263.731 81.4987 264.312 72.0548 264.748C61.3033 265.329 50.116 265.911 39.0739 265.62C11.7592 264.894 -9.88916 258.501 -25.4353 246.442C-49.8441 227.409 -60.7409 191.376 -52.0235 158.686C-47.2289 140.815 -37.3491 124.688 -27.9052 108.996C-23.8371 102.313 -19.6237 95.3391 -15.8461 88.3652C-12.6497 82.4083 -9.59858 76.0155 -6.54747 69.9133C1.00765 54.2218 8.85339 37.9493 20.9125 25.0184C29.4847 16.0104 40.5267 8.60052 52.4406 4.38709C78.7382 -4.91152 103.583 0.754819 118.984 19.6426C126.975 29.3771 132.351 42.1627 135.111 57.4182C137.436 70.6397 139.034 78.0495 146.298 89.5275C148.333 92.7239 150.512 95.9203 152.982 98.8261C162.716 110.74 175.066 120.329 187.125 129.628C191.92 133.26 196.86 137.183 201.654 141.106C237.977 171.181 239.721 202.128 238.849 214.187C236.815 239.758 218.653 262.859 193.663 271.867ZM53.167 6.42116C41.5438 10.4893 30.7922 17.6086 22.6559 26.326C10.8874 39.1116 3.04176 55.0936 -4.51337 70.6397C-7.41918 76.7419 -10.6156 83.1347 -13.812 89.2369C-17.5896 96.2109 -21.803 103.185 -26.0165 109.868C-35.4604 125.269 -45.1949 141.251 -49.9895 158.977C-58.5616 190.941 -47.9554 226.101 -24.273 244.553C-9.16272 256.321 12.195 262.714 38.9285 263.295C49.8253 263.586 61.0128 263.005 71.7643 262.424C81.3535 261.988 91.2333 261.407 100.968 261.552C114.916 261.697 124.214 263.005 135.547 266.637C150.802 271.432 162.571 273.466 173.758 273.175C180.151 273.03 186.544 271.867 192.646 269.688C216.91 261.116 234.345 238.596 236.233 213.896C237.105 202.273 235.362 172.053 199.766 142.704C195.116 138.781 190.031 135.004 185.236 131.226C173.032 121.927 160.537 112.193 150.657 100.134C148.187 97.0826 146.008 94.0315 143.829 90.6898C136.419 78.9213 134.675 70.9303 132.351 57.8541C129.735 42.8892 124.505 30.5394 116.659 21.0955C102.566 2.93418 78.5929 -2.58687 53.167 6.42116Z" fill="url(#paint10_linear_88_16071)"/>
</g>
<defs>
<linearGradient id="paint0_linear_88_16071" x1="189.659" y1="177.295" x2="52.7665" y2="72.7827" gradientUnits="userSpaceOnUse">
<stop offset="0.1622" stop-color="white"/>
<stop offset="0.8891" stop-color="white" stop-opacity="0"/>
</linearGradient>
<linearGradient id="paint1_linear_88_16071" x1="191.13" y1="187.097" x2="44.5359" y2="75.1778" gradientUnits="userSpaceOnUse">
<stop offset="0.1622" stop-color="white"/>
<stop offset="0.8891" stop-color="white" stop-opacity="0"/>
</linearGradient>
<linearGradient id="paint2_linear_88_16071" x1="192.259" y1="197.26" x2="35.9726" y2="77.9417" gradientUnits="userSpaceOnUse">
<stop offset="0.1622" stop-color="white"/>
<stop offset="0.8891" stop-color="white" stop-opacity="0"/>
</linearGradient>
<linearGradient id="paint3_linear_88_16071" x1="193.667" y1="207.295" x2="27.5426" y2="80.4647" gradientUnits="userSpaceOnUse">
<stop offset="0.1622" stop-color="white"/>
<stop offset="0.8891" stop-color="white" stop-opacity="0"/>
</linearGradient>
<linearGradient id="paint4_linear_88_16071" x1="195.587" y1="216.529" x2="19.6437" y2="82.2026" gradientUnits="userSpaceOnUse">
<stop offset="0.1622" stop-color="white"/>
<stop offset="0.8891" stop-color="white" stop-opacity="0"/>
</linearGradient>
<linearGradient id="paint5_linear_88_16071" x1="198.28" y1="224.732" x2="12.4823" y2="82.8821" gradientUnits="userSpaceOnUse">
<stop offset="0.1622" stop-color="white"/>
<stop offset="0.8891" stop-color="white" stop-opacity="0"/>
</linearGradient>
<linearGradient id="paint6_linear_88_16071" x1="201.516" y1="232.394" x2="5.70797" y2="82.9025" gradientUnits="userSpaceOnUse">
<stop offset="0.1622" stop-color="white"/>
<stop offset="0.8891" stop-color="white" stop-opacity="0"/>
</linearGradient>
<linearGradient id="paint7_linear_88_16071" x1="204.982" y1="239.767" x2="-0.954856" y2="82.5425" gradientUnits="userSpaceOnUse">
<stop offset="0.1622" stop-color="white"/>
<stop offset="0.8891" stop-color="white" stop-opacity="0"/>
</linearGradient>
<linearGradient id="paint8_linear_88_16071" x1="208.457" y1="246.901" x2="-7.64351" y2="81.9165" gradientUnits="userSpaceOnUse">
<stop offset="0.1622" stop-color="white"/>
<stop offset="0.8891" stop-color="white" stop-opacity="0"/>
</linearGradient>
<linearGradient id="paint9_linear_88_16071" x1="212.109" y1="254.024" x2="-14.461" y2="81.0465" gradientUnits="userSpaceOnUse">
<stop offset="0.1622" stop-color="white"/>
<stop offset="0.8891" stop-color="white" stop-opacity="0"/>
</linearGradient>
<linearGradient id="paint10_linear_88_16071" x1="215.804" y1="261.093" x2="-21.472" y2="79.9417" gradientUnits="userSpaceOnUse">
<stop offset="0.1622" stop-color="white"/>
<stop offset="0.8891" stop-color="white" stop-opacity="0"/>
</linearGradient>
</defs>
</svg>
