<svg width="227" height="277" viewBox="0 0 227 277" fill="none" xmlns="http://www.w3.org/2000/svg">
<g opacity="0.1">
<path d="M98.4802 198.367C94.5754 190.3 93.944 179.995 95.0182 173.456C98.0568 154.882 109.937 138.457 119.207 127.855C130.71 114.829 145.541 102.919 159.796 95.3041C179.577 84.6328 201.752 80.1403 222.419 82.2313C231.878 83.2946 238.551 85.6693 243.367 89.8438C245.6 91.657 247.315 94.1083 248.597 96.6046C250.856 101.483 251.092 106.571 249.04 110.728C245.18 118.578 235.314 120.624 228.098 120.059C224.121 119.741 220.229 118.83 216.481 117.905C212.892 117.109 209.144 116.183 205.457 115.835C194.104 114.823 181.846 119.162 172.625 127.423C165.147 134.188 158.447 144.232 155.201 153.771C153.857 157.709 152.802 161.616 151.876 165.364C151.165 168.359 150.309 171.369 149.453 174.38C147.825 179.807 145.788 184.109 143.417 188.006C137.411 197.686 126.839 208.424 115.089 209.206C108.007 209.941 102.21 206.16 98.4802 198.367ZM246.793 97.5221C245.671 95.1554 243.986 92.9932 242.072 91.439C237.575 87.5235 231.221 85.4078 222.21 84.444C201.977 82.308 180.091 86.7705 160.873 97.2372C124.212 116.964 101.135 150.765 97.2609 173.954C96.2712 179.899 96.8726 189.916 100.443 197.579C102.703 202.457 107.219 207.977 115.053 207.456C125.922 206.62 136.219 196.057 141.738 187.304C144.123 183.551 145.886 179.424 147.529 174.141C148.4 171.275 149.241 168.121 149.968 165.27C150.878 161.377 151.934 157.47 153.278 153.533C156.638 143.689 163.597 133.326 171.334 126.242C180.959 117.648 193.779 113.103 205.71 114.056C209.543 114.389 213.29 115.314 217.023 116.096C220.771 117.021 224.504 117.802 228.336 118.135C234.815 118.631 243.685 116.834 247.216 110.04C249.024 106.347 248.848 101.837 246.793 97.5221Z" fill="url(#paint0_linear_16_1701)"/>
<path d="M91.4778 201.285C89.7872 197.663 88.4701 193.417 87.8756 189.097C87.1911 183.909 87.1992 178.358 88.1494 173.439C89.0846 168.375 90.0648 163.745 91.4185 158.492C93.8424 149.476 97.1783 140.804 101.441 132.62C106.551 122.741 112.663 114.073 119.647 106.775C131.513 94.4417 145.654 87.1311 155.47 83.1909C177.484 74.3329 198.942 71.3754 219.12 74.3936C225.355 75.3533 234.455 77.1841 241.429 82.4493C244.445 84.7656 246.798 87.7348 248.459 91.0682C250.339 95.1091 250.933 99.4295 249.848 103.048C247.723 110.718 240.059 114.289 233.571 115.108C230.247 115.453 227.023 115.35 223.51 115.276C220.285 115.173 216.917 115.084 213.448 115.444C209.546 115.849 205.256 116.733 200.751 118.369C193.417 120.883 186.202 124.553 179.959 129.145C179.556 129.479 179.137 129.668 178.734 130.002C174.135 133.547 170.045 137.77 166.22 143.133C164.939 144.873 163.674 146.757 162.569 148.771C160.96 151.567 159.64 154.333 158.465 157.084C156.717 161.356 155.403 165.582 154.089 169.808C153.088 172.834 152.247 175.989 151.102 179.029C150.415 180.853 149.842 182.373 149.27 183.893C147.736 187.412 146.028 190.657 144.13 193.483C137.301 203.687 125.589 214.689 112.827 215.575C103.677 216.087 96.1406 211.026 91.4778 201.285ZM246.67 92.1303C245.184 89.071 243.005 86.3756 240.308 84.3184C233.798 79.2973 225.002 77.581 218.912 76.6063C199.037 73.7027 178.013 76.6151 156.273 85.2986C142.675 90.7999 130.085 98.972 121.128 108.374C114.273 115.512 108.291 124.021 103.311 133.741C99.177 141.765 95.8411 150.438 93.5317 159.149C92.163 164.258 91.1828 168.888 90.2326 173.807C89.412 178.566 89.2293 183.844 90.0434 188.872C90.6078 192.903 91.7654 197.019 93.426 200.352C95.8596 205.504 101.718 214.099 112.602 213.408C124.497 212.611 135.661 201.958 142.246 192.218C144.144 189.392 145.722 186.306 147.271 182.932C147.844 181.412 148.561 179.877 149.118 178.212C150.264 175.172 151.12 172.162 152.12 169.136C153.435 164.91 154.734 160.539 156.481 156.268C157.642 153.372 159.091 150.446 160.7 147.65C161.95 145.621 163.2 143.592 164.48 141.853C168.435 136.33 172.654 131.948 177.542 128.373C177.946 128.039 178.349 127.705 178.768 127.516C185.155 122.909 192.644 119.064 200.252 116.375C204.901 114.724 209.481 113.811 213.527 113.391C217.14 113.016 220.654 113.089 223.878 113.193C227.247 113.282 230.471 113.385 233.65 113.055C239.416 112.311 246.113 109.278 248.054 102.65C248.88 99.3506 248.361 95.7527 246.67 92.1303Z" fill="url(#paint1_linear_16_1701)"/>
<path d="M84.6361 204.332C82.7709 200.436 81.4389 196.046 80.8294 191.581C80.0699 185.671 80.1475 179.382 81.4113 173.262C82.1774 169.384 82.814 165.666 83.4506 161.948L84.4703 156.292C86.4947 144.834 89.0181 135.37 92.3241 126.409C96.7753 114.407 102.737 104.294 109.92 96.0984C123.121 81.1437 141.513 73.9762 151.304 71.2071C174.699 64.3968 195.873 62.9295 216.127 66.6702C223.274 67.9735 232.404 70.0934 239.812 75.3135C243.754 78.1179 247.065 81.8643 248.96 86.0497C250.461 89.2536 251.095 92.5474 250.961 95.4827C250.465 101.961 246.191 107.225 239.479 110.113C236.405 111.455 232.982 112.248 229.558 113.042C227.132 113.586 224.56 114.145 221.73 115.023C218.192 116.12 213.977 117.726 208.939 119.856C200.827 123.327 192.935 127.506 186.358 131.694C185.955 132.028 185.392 132.233 184.988 132.567C179.508 136.057 175.114 140.165 170.725 145.733C169.3 147.487 167.906 149.531 166.511 151.575C164.613 154.401 163.02 157.342 161.715 160.253C159.564 164.858 157.861 169.563 156.303 174.253C155.157 177.293 154.027 180.478 152.867 183.374C152.036 185.213 151.333 186.893 150.631 188.572C148.839 192.41 146.986 195.67 144.829 198.815C141.278 204.004 128.112 220.708 110.695 221.785C99.6373 222.203 90.0569 215.747 84.6361 204.332ZM246.997 86.8377C245.146 83.0858 242.155 79.5985 238.531 77.0531C231.443 72.092 222.617 70.0867 215.759 68.7535C195.809 65.1273 174.924 66.5645 151.963 73.3298C142.46 76.069 124.487 83.0468 111.69 97.6676C104.636 105.703 98.9484 115.642 94.4673 127.355C91.1463 136.172 88.7524 145.476 86.5685 156.805L85.5488 162.461C84.9122 166.179 84.1311 169.912 83.5245 173.919C82.3903 179.879 82.2826 185.879 83.0271 191.645C83.6066 195.821 84.7792 200.081 86.6143 203.689C91.6711 214.411 100.454 220.219 110.47 219.618C126.876 218.645 139.523 202.579 142.945 197.55C144.972 194.564 146.825 191.304 148.633 187.611C149.35 186.076 150.052 184.396 150.883 182.557C152.029 179.517 153.174 176.477 154.319 173.436C156.022 168.731 157.724 164.026 159.861 159.276C161.295 156.206 162.889 153.265 164.771 150.295C166.151 148.107 167.69 146.048 169.115 144.293C173.777 138.551 178.316 134.428 183.926 130.778C184.33 130.444 184.893 130.24 185.296 129.906C192.017 125.702 199.91 121.523 208.151 117.893C213.318 115.604 217.534 113.997 221.216 112.885C224.046 112.007 226.618 111.448 229.044 110.904C232.612 110.095 235.747 109.332 238.691 108.15C242.184 106.619 248.243 103.068 248.893 95.2591C249.057 92.6129 248.323 89.7675 246.997 86.8377Z" fill="url(#paint2_linear_16_1701)"/>
<path d="M77.6658 207.539C75.6262 203.368 74.2791 198.834 73.6546 194.224C72.8201 187.592 73.1118 180.55 74.4001 173.259C75.5193 167.154 76.3944 161.512 77.2341 154.121C78.705 141.553 80.2263 130.878 83.0783 120.357C86.8709 106.232 92.4086 94.8484 100.05 85.4371C114.312 68.0351 135.539 61.4498 146.836 59.1087C170.296 54.3366 191.894 54.1399 212.672 58.7027C220.601 60.509 229.906 62.9029 237.716 67.789C242.875 71.0514 247.173 75.8641 249.591 80.8716C250.698 83.0938 251.372 85.361 251.582 87.3842C252.257 93.8874 250.096 99.8085 245.025 104.425C241.293 107.88 236.864 110.238 230.63 113.515L229.664 114.053C227.716 114.986 225.782 116.063 223.575 117.314C221.353 118.421 219.146 119.673 216.649 120.954C214.572 122.047 212.494 123.139 210.416 124.231C204.457 127.332 198.224 130.609 192.424 133.84L192.15 134.014C191.732 134.204 191.328 134.538 190.91 134.727C184.707 138.293 179.864 142.301 174.897 147.929C173.328 149.699 171.789 151.757 170.12 153.975C168.093 156.961 166.21 159.932 164.647 163.162C162.092 168.101 160.001 173.285 157.894 178.324C156.605 181.379 155.459 184.419 154.025 187.49C153.209 189.473 152.377 191.312 151.515 192.862C149.593 196.86 147.322 200.309 145.036 203.614C134.535 217.85 120.704 226.735 107.927 227.477C95.3092 228.349 84.0042 220.758 77.6658 207.539ZM247.803 81.9336C245.559 77.2001 241.451 72.8062 236.755 69.7878C229.249 65.0162 220.233 62.5922 212.463 60.9154C191.99 56.4672 170.666 56.4893 147.509 61.3759C136.502 63.687 115.822 69.9233 101.949 86.8467C94.5668 95.939 89.1436 107.019 85.321 120.854C82.469 131.375 80.9177 141.761 79.4469 154.33C78.6072 161.721 77.747 167.507 76.6278 173.612C75.3245 180.759 75.0029 187.511 75.8074 193.855C76.4168 198.32 77.7339 202.565 79.614 206.606C85.5734 218.988 96.0958 226.076 108.006 225.424C120.061 224.757 133.344 216.221 143.455 202.463C145.757 199.303 147.883 195.869 149.821 192.016C150.667 190.321 151.514 188.627 152.331 186.643C153.62 183.588 154.91 180.532 156.2 177.477C158.306 172.438 160.382 167.11 162.937 162.171C164.645 158.926 166.513 155.811 168.54 152.825C170.194 150.462 171.733 148.403 173.447 146.619C178.672 140.672 183.515 136.663 189.992 132.924C190.411 132.734 190.814 132.4 191.233 132.211L191.507 132.036C197.306 128.805 203.54 125.529 209.643 122.412C211.721 121.32 213.799 120.228 215.876 119.136C218.228 117.869 220.58 116.603 222.802 115.496C225.024 114.388 226.958 113.311 228.891 112.234L229.857 111.696C235.961 108.579 240.391 106.22 243.848 102.94C248.516 98.6578 250.463 93.4893 249.848 87.5642C249.394 86.0046 248.75 84.0264 247.803 81.9336Z" fill="url(#paint3_linear_16_1701)"/>
<path d="M70.7118 210.89C68.6422 206.431 67.1356 201.766 66.4811 196.868C65.5866 189.657 65.9328 181.734 67.5346 173.241C68.8528 166.239 69.683 160.164 70.1437 151.936L70.4068 148.841C71.215 136.926 71.9538 125.748 74.1227 114.275C77.1273 98.1874 82.5 85.2137 90.485 74.8903C101.822 60.2751 120.781 50.1274 142.687 47.2695C165.605 44.3065 187.498 45.5401 209.696 51.124C218.552 53.4183 228.031 56.0863 235.972 60.8129C242.666 64.7924 248.224 70.4965 251.196 76.6151C251.75 77.7262 252.159 78.8524 252.568 79.9785C254.574 86.6357 254.077 93.1144 250.79 99.4444C248.236 104.384 244.45 108.721 237.803 113.647C233.753 116.842 229.239 119.794 224.854 122.586C216.604 127.533 207.441 132.135 198.841 136.534L198.567 136.708C198.004 136.913 197.6 137.247 197.037 137.451C189.822 141.122 184.95 144.841 179.276 150.688C177.432 152.632 175.734 154.562 173.935 156.939C171.619 159.955 169.622 163.23 167.769 166.49C164.826 171.908 162.331 177.425 159.836 182.943C158.546 185.998 157.112 189.068 155.678 192.139C154.732 194.282 153.756 196.136 152.765 197.845C150.568 202.017 148.183 205.771 145.607 209.105C140.068 216.254 125.283 232.834 105.668 233.847C91.1119 234.335 77.7932 225.639 70.7118 210.89ZM249.233 77.4032C246.45 71.7031 241.211 66.2579 234.836 62.5375C227.055 57.9404 217.865 55.2425 209.024 53.0926C187.129 47.6232 165.526 46.3598 142.897 49.2927C121.569 52.0906 103.014 61.9043 92.0651 76.041C84.3392 86.0454 79.081 98.715 76.1909 114.498C74.007 125.827 73.2682 137.005 72.5895 148.761L72.3264 151.856C71.7212 160.099 70.921 166.463 69.6028 173.465C67.971 181.668 67.6098 189.447 68.6188 196.354C69.2433 200.963 70.5904 205.498 72.645 209.813C79.3474 223.724 91.8985 232.062 105.573 231.52C124.32 230.596 138.717 214.495 143.997 207.666C146.572 204.331 148.829 200.737 151.04 196.71C152.031 195 152.863 193.161 153.953 191.003C155.388 187.933 156.822 184.862 158.126 181.952C160.621 176.434 163.101 170.772 166.189 165.339C168.027 161.935 170.168 158.645 172.614 155.47C174.412 153.092 176.241 151.003 178.084 149.059C183.743 143.067 189.034 139.158 196.378 135.329C196.942 135.124 197.345 134.79 197.908 134.586L198.182 134.411C206.797 130.157 215.816 125.569 224.066 120.623C228.466 117.975 232.835 115.039 236.886 111.843C243.243 106.947 246.785 103.074 249.21 98.2937C252.253 92.4272 252.809 86.5267 250.864 80.4475C250.181 79.4959 249.787 78.5143 249.233 77.4032Z" fill="url(#paint4_linear_16_1701)"/>
<path d="M63.7537 214.241C61.5096 209.508 59.973 204.555 59.2886 199.367C58.3191 191.434 58.7498 182.917 60.6501 173.079C62.1974 165.469 62.8081 158.686 63.0343 149.606C63.1378 146.382 63.2414 143.158 63.2004 139.948C63.4211 129.408 63.6118 118.579 64.8441 107.934C67.0606 89.8836 72.1389 75.4798 80.5969 64.0848C92.6213 47.6454 114.281 36.7792 138.216 35.1714C159.679 33.6741 182.01 36.3227 206.237 43.1568C215.572 45.8397 225.37 48.7667 233.889 53.4333C242.088 57.8408 249.082 64.7107 253.071 72.1845C253.261 72.603 253.45 73.0215 253.64 73.44C256.627 79.7032 257.332 86.4955 255.929 94.0907C254.596 100.948 251.279 106.989 245.475 112.996C241.789 116.885 237.35 120.559 232.447 123.989C225.079 128.99 216.364 133.692 204.774 138.839L204.5 139.014C203.937 139.218 203.519 139.408 202.971 139.757C194.874 143.373 189.553 146.992 183.46 153.029C181.472 154.988 179.5 157.092 177.557 159.485C175.111 162.66 172.68 165.98 170.698 169.399C167.207 175.166 164.338 181.307 161.44 187.158C159.991 190.084 158.556 193.154 156.978 196.24C155.887 198.398 154.781 200.412 153.805 202.266C151.335 206.612 148.675 210.54 145.97 214.034C133.567 229.637 117.887 239.006 103.057 239.669C87.0701 240.451 71.5633 230.375 63.7537 214.241ZM251.981 74.3426C251.791 73.9241 251.617 73.65 251.427 73.2315C247.627 66.1762 240.952 59.5655 233.217 55.4019C224.858 50.8648 215.204 47.9229 206.029 45.3695C181.961 38.665 159.919 35.9863 138.745 37.4536C115.388 39.0014 94.421 49.5036 82.6406 65.4795C74.4416 76.5554 69.4628 90.5107 67.3608 108.257C66.1136 118.758 65.9229 129.587 65.6872 139.983C65.5836 143.207 65.6246 146.416 65.521 149.641C65.2948 158.72 64.5546 165.663 63.0224 173.417C61.092 182.966 60.7908 191.324 61.7303 198.968C62.3848 203.866 63.7619 208.69 65.976 213.134C73.277 228.59 88.0012 238.164 103.425 237.585C117.677 236.982 132.664 227.977 144.824 212.839C147.529 209.344 150.188 205.416 152.529 201.23C153.505 199.375 154.626 197.506 155.702 195.204C157.295 192.263 158.73 189.192 160.164 186.122C163.047 180.126 166.06 173.971 169.536 168.059C171.648 164.48 174.064 161.016 176.654 157.826C178.597 155.433 180.699 153.17 182.672 151.066C189.039 144.855 194.345 141.09 202.716 137.3C203.279 137.096 203.697 136.906 204.245 136.557L204.519 136.383C215.965 131.251 224.679 126.548 231.918 121.707C236.691 118.436 240.986 114.777 244.543 111.048C250.072 105.216 253.145 99.6382 254.379 93.2291C255.438 86.5459 254.778 80.1872 251.981 74.3426Z" fill="url(#paint5_linear_16_1701)"/>
<path d="M56.9443 217.578C54.5257 212.57 52.9591 207.328 52.2596 201.996C51.0856 193.5 51.7004 183.941 53.7847 173.062C55.4015 164.714 56.0967 157.338 56.0884 147.406C56.027 142.592 55.9505 137.634 55.7446 132.835C55.4172 122.644 55.2044 112.149 55.8886 101.853C57.1726 81.8537 62.1008 66.0047 70.8874 53.5531C86.2888 31.6507 113.496 23.5683 133.923 23.3471C154.205 23.1409 174.878 26.6922 203.102 35.4485L203.71 35.6775C213.219 38.6345 223.177 41.691 232.114 46.1681C241.21 50.7747 249.216 57.5394 253.883 64.5047C258.739 71.8885 261.343 80.0903 261.361 88.7067C261.524 97.308 258.82 105.038 253.585 112.301C250.118 116.897 245.754 121.294 240.607 125.187C232.895 131.1 223.199 136.197 211.29 141.085L210.872 141.274C210.309 141.479 209.89 141.668 209.327 141.873C201.619 145.01 195.675 148.256 188.212 155.166C186.08 157.14 183.977 159.403 181.89 161.811C179.155 165.016 176.595 168.495 174.209 172.249C170.329 178.494 166.913 184.984 163.641 191.458C162.192 194.384 160.613 197.469 159.019 200.41C157.799 202.728 156.549 204.756 155.443 206.77C152.843 211.276 149.91 215.378 146.946 219.192C128.799 241.379 110.366 245.337 101.187 245.56C82.7434 246.597 65.3824 235.545 56.9443 217.578ZM255.31 71.2219C254.393 69.4182 253.316 67.485 252.269 65.8408C247.761 59.005 240.09 52.6438 231.297 48.1517C222.505 43.6596 212.707 40.7326 203.197 37.7757L202.589 37.5467C174.654 28.7604 154.126 25.1941 134.148 25.5149C114.314 25.8206 87.7994 33.5389 72.7715 54.8183C64.244 66.9508 59.4153 82.3512 58.1013 102.061C57.4171 112.357 57.6299 122.852 57.9423 132.899C58.0037 137.713 58.2247 142.656 58.3011 147.615C58.3094 157.547 57.6443 165.211 56.0425 173.704C53.9281 184.294 53.4279 193.549 54.4423 201.916C55.1268 207.103 56.6634 212.056 58.9225 216.934C67.1261 234.049 83.56 244.614 100.877 243.985C109.753 243.648 127.462 239.765 145.107 218.36C148.085 214.691 150.875 210.604 153.49 206.243C154.61 204.373 155.716 202.36 157.08 200.027C158.674 197.086 160.253 194.001 161.702 191.075C164.974 184.601 168.375 177.966 172.4 171.706C174.786 167.953 177.476 164.314 180.21 161.109C182.283 158.556 184.529 156.278 186.791 154.144C194.513 146.916 200.602 143.655 208.584 140.343C209.147 140.138 209.566 139.949 210.129 139.744L210.547 139.555C222.327 134.827 231.734 129.76 239.461 123.992C244.463 120.113 248.712 116.02 252.035 111.439C257.155 104.481 259.615 97.214 259.512 89.1907C259.416 82.6276 258.078 76.7775 255.31 71.2219Z" fill="url(#paint6_linear_16_1701)"/>
<path d="M50.0041 221.073C47.5555 215.777 45.8144 210.26 45.0849 204.639C43.821 195.276 44.5352 185.269 46.9331 173.188C48.764 164.088 49.4141 156.279 49.0118 145.365C48.8004 139.106 48.4294 132.717 47.944 126.633C47.3276 116.472 46.5367 106.037 46.7874 95.7857C47.2833 73.8235 51.917 56.5444 61.1767 43.0212C74.8644 22.9034 101.766 10.4707 129.628 11.5228C154.411 12.4563 178.484 20.6209 199.836 27.8995C201.356 28.472 202.861 28.9001 204.381 29.4727C213.008 32.3751 221.94 35.3921 230.223 39.2066C240.361 43.9972 248.741 50.139 254.594 57.2733C261.085 64.9256 265.254 74.1336 266.707 83.9156C268.191 93.9867 266.405 103.521 261.449 112.069C258.217 117.517 253.928 122.636 248.393 127.009C240.322 133.689 229.948 139.294 217.431 143.953L215.179 144.771C206.459 148.013 200.211 151.145 192.33 158.244C189.923 160.392 187.677 162.671 185.46 165.238C182.581 168.458 179.891 172.097 177.086 176.04C172.658 182.634 168.724 189.762 165.063 196.715C163.47 199.656 161.876 202.597 160.267 205.393C158.918 207.87 157.538 210.058 156.432 212.072C153.703 216.737 150.495 221.014 147.113 225.017C138.794 234.937 121.377 251.498 98.3789 252.278C78.4154 252.743 59.3297 240.555 50.0041 221.073ZM260.393 69.5256C258.528 65.6292 256.085 61.7927 253.253 58.4349C247.575 51.5746 239.355 45.5623 229.521 40.8862C221.382 37.0567 212.451 34.0398 203.983 31.2669C202.463 30.6943 200.958 30.2662 199.438 29.6936C178.246 22.5446 154.173 14.3799 129.838 13.5459C102.713 12.5634 76.5045 24.6321 63.1903 44.1268C54.1897 57.331 49.6705 74.3061 49.1146 95.6902C48.8639 105.941 49.5103 116.391 50.2562 126.393C50.5972 132.492 51.1126 138.866 51.324 145.125C51.7414 156.183 51.0912 163.992 49.2904 173.382C46.8774 185.318 46.2927 195.166 47.5267 204.24C48.2412 209.716 49.8077 214.959 52.2414 220.111C61.203 238.9 79.4911 250.441 98.717 249.906C120.833 249.071 137.846 232.844 145.921 223.388C149.174 219.545 152.237 215.283 154.982 210.762C156.232 208.733 157.467 206.56 158.832 204.227C160.425 201.287 162.019 198.346 163.628 195.549C167.433 188.581 171.367 181.454 175.78 174.715C178.57 170.627 181.26 166.988 184.268 163.609C186.485 161.041 188.861 158.604 191.412 156.44C199.568 149.166 205.96 146.02 214.954 142.603L217.206 141.785C229.594 137.286 239.678 131.711 247.62 125.19C252.866 120.848 257.04 116.032 260.143 110.744C264.855 102.659 266.541 93.5735 265.103 83.9361C264 78.9381 262.623 74.1146 260.393 69.5256Z" fill="url(#paint7_linear_16_1701)"/>
<path d="M43.2079 224.554C40.5848 218.983 38.8137 213.178 38.0542 207.268C36.7303 197.327 37.499 186.438 40.2105 173.156C42.2404 163.159 42.686 154.786 42.0642 143.165C41.7177 135.605 40.9228 127.946 40.1579 120.576C39.1079 110.46 38.1575 99.8952 37.9596 89.5446C37.538 65.7788 42.0217 47.0545 51.7394 32.3152C66.5028 9.8947 95.3973 -3.03703 125.608 -0.47578C146.678 1.28124 166.121 8.4657 186.636 16.1233C190.124 17.368 193.484 18.7722 196.973 20.0169C200.013 21.162 203.038 22.1627 205.919 23.1783C213.49 25.7522 221.235 28.6001 228.576 31.782C239.596 36.6272 248.698 42.694 255.677 49.4192C260.887 54.5753 265 60.4295 268.162 66.9667C270.012 70.7186 271.284 74.5305 272.282 78.5169C275.246 90.1871 274.333 101.091 269.542 111.229C266.544 117.529 262.171 123.242 256.551 128.207C248.122 135.655 237.2 141.609 223.931 146.054L223.368 146.258C222.804 146.463 222.097 146.682 221.534 146.887C211.802 150.234 205.395 153.236 196.935 160.395C194.384 162.559 191.864 165.012 189.502 167.594C186.349 170.989 183.37 174.657 180.451 178.904C175.49 185.992 171.167 193.599 166.974 201.045C165.365 203.842 163.771 206.782 162.018 209.594C160.539 212.23 159.159 214.418 157.779 216.607C154.776 221.447 151.439 225.883 147.782 230.06C132.524 247.712 114.128 257.655 96.0736 258.214C74.376 258.86 53.1021 245.292 43.2079 224.554ZM266.069 67.9143C263.082 61.6511 258.984 55.9415 254.078 50.8999C247.403 44.2891 238.476 38.4964 227.6 33.6362C220.259 30.4543 212.528 27.7509 205.087 25.0175C202.062 24.0169 199.022 22.8717 195.996 21.8711C192.508 20.6264 189.019 19.3817 185.659 17.9775C165.29 10.3049 145.991 3.10539 125.225 1.46289C95.9114 -0.899327 67.6944 11.524 53.3046 33.3214C43.8309 47.5971 39.4617 66.0173 39.8383 89.3496C40.0362 99.7002 41.1161 110.105 42.0065 120.092C42.7715 127.462 43.5665 135.121 43.9279 142.826C44.5647 154.591 44.149 163.253 41.9897 173.41C39.2632 186.547 38.6089 197.132 39.9029 206.784C40.6474 212.55 42.244 218.081 44.8521 223.507C54.3822 243.552 74.8736 256.617 95.8336 255.902C119.41 255.062 137.39 238.296 145.998 228.347C149.524 224.329 152.862 219.892 155.736 215.212C156.986 213.183 158.351 210.851 159.989 208.343C161.598 205.547 163.336 202.591 164.945 199.795C169.138 192.348 173.591 184.583 178.552 177.495C181.615 173.233 184.579 169.419 187.733 166.025C190.238 163.427 192.759 160.975 195.295 158.667C204.014 151.188 210.71 148.156 220.586 144.794C221.149 144.59 221.712 144.385 222.42 144.166L222.983 143.961C235.963 139.546 246.756 133.752 254.911 126.478C260.401 121.672 264.501 116.135 267.384 110.138C271.931 100.464 272.744 90.0086 269.985 78.9014C269.161 75.189 267.904 71.5217 266.069 67.9143Z" fill="url(#paint8_linear_16_1701)"/>
<path d="M36.2513 227.905C33.4536 222.061 31.6525 215.966 30.848 209.623C29.4641 199.103 30.2873 187.332 33.1679 172.864C35.2822 162.274 35.7975 153.164 34.7966 140.705C34.1856 132.005 32.9967 123.364 31.9672 114.852C30.5982 104.477 29.1993 93.8132 28.6674 83.0592C27.3582 57.7787 31.7765 37.0162 41.8377 21.3648C57.4176 -3.03935 89.1575 -16.7047 121.123 -12.7188C140.359 -10.3332 158.547 -2.58022 176.255 4.7843C181.902 7.11963 187.724 9.72903 193.645 11.8898C198.22 13.7521 203.07 15.4399 207.615 17.0131C213.985 19.2734 220.514 21.6632 226.769 24.2276C238.99 29.3863 248.784 35.089 256.471 41.5948C263.854 47.986 270.101 56.1019 274.385 65.0059C275.681 67.6467 276.704 70.462 277.711 73.1327C281.981 86.1281 282.001 98.9804 277.49 110.404C274.711 117.412 270.413 123.847 264.564 129.42C255.92 137.621 244.451 143.924 230.299 148.314C229.447 148.548 228.595 148.783 227.758 149.162C217 152.47 210.433 155.342 201.41 162.706C198.585 165.044 195.92 167.512 193.414 170.109C190.116 173.519 186.864 177.362 183.671 181.783C178.161 189.221 173.32 197.465 168.594 205.405C166.985 208.201 165.232 211.013 163.608 213.664C161.984 216.316 160.475 218.664 159.096 220.852C155.818 225.866 152.222 230.622 148.421 234.814C132.34 252.989 112.963 263.326 93.8819 263.846C70.0315 264.861 46.9034 250.317 36.2513 227.905ZM272.322 66.2425C268.198 57.4681 262.125 49.6262 254.917 43.509C247.39 37.1327 237.899 31.5445 225.838 26.5153C219.583 23.9509 213.054 21.5611 206.829 19.2858C202.268 17.568 197.419 15.8803 192.858 14.1626C187.067 11.8422 181.116 9.39234 175.469 7.05701C158.049 -0.337504 139.877 -7.94604 120.929 -10.3616C89.8611 -14.1485 58.8138 -0.847147 43.7369 22.7744C34.0642 37.9473 29.7454 58.2612 31.0246 83.2527C31.5415 93.8623 32.9405 104.526 34.2944 114.757C35.3239 123.268 36.5279 132.054 37.1388 140.754C38.1697 153.502 37.6545 162.612 35.4256 173.506C32.5301 187.83 31.8213 199.297 33.0307 209.542C33.8052 215.597 35.5913 221.546 38.2145 227.117C48.4876 248.692 70.8481 262.877 93.7019 262.112C112.19 261.508 131.019 251.52 146.696 233.679C150.497 229.486 153.949 224.746 157.097 219.891C158.477 217.703 159.986 215.355 161.609 212.703C163.218 209.907 164.986 207.24 166.595 204.444C171.322 196.504 176.163 188.26 181.801 180.663C185.139 176.226 188.377 172.239 191.675 168.829C194.18 166.232 196.975 163.604 199.8 161.266C209.097 153.728 215.953 150.825 226.84 147.358C227.693 147.124 228.545 146.889 229.382 146.51C243.244 142.15 254.44 136.022 262.824 128.14C268.414 122.886 272.598 116.754 275.247 109.906C279.514 98.9463 279.555 86.6721 275.329 74.1103C274.611 71.4095 273.603 68.7388 272.322 66.2425Z" fill="url(#paint9_linear_16_1701)"/>
<path d="M29.3106 231.401C26.3383 225.282 24.5073 218.899 23.6728 212.266C22.1989 200.88 22.9921 188.82 26.3007 172.847C28.6141 161.359 29.1143 152.105 27.7044 138.52C26.844 128.823 25.246 119.056 23.8375 109.707C22.1495 99.0732 20.4165 88.0056 19.5656 76.9925C17.4684 49.7488 21.5922 27.5562 31.9819 10.8482C48.3935 -15.3951 83.1082 -29.9535 116.524 -24.6574C134.794 -21.7333 151.855 -13.5713 168.438 -5.79775C175.505 -2.4413 182.877 1.02965 190.204 4.06707C196.459 6.63143 203.132 9.0063 209.517 11.4111C225.905 17.306 242.9 23.4299 257.007 34.0897C266.852 41.6861 275.362 51.9042 280.783 63.3194C292.746 88.5166 289.675 113.814 272.478 131.082C263.621 140.035 251.458 146.702 236.569 151.023C223.659 154.7 216.453 157.055 205.787 165.465C202.817 167.819 199.863 170.316 197.228 173.073C186.382 183.985 178.119 197.259 170.115 210.214C166.997 215.358 163.606 220.676 160.199 225.85C134.034 265.083 103.432 270.013 91.3476 270.39C65.703 271.007 40.8503 255.327 29.3106 231.401ZM278.834 64.252C273.588 53.1108 265.397 43.1517 255.886 35.9588C241.954 25.573 225.247 19.4192 209.004 13.5094C202.635 11.2491 195.946 8.72966 189.547 6.1803C182.22 3.14288 174.848 -0.32812 167.766 -3.82908C151.472 -11.6326 134.571 -19.6652 116.445 -22.6043C83.7667 -27.8308 49.8891 -13.6515 33.9806 11.8093C23.8349 28.0537 19.6811 49.9573 21.8629 76.608C22.6988 87.4766 24.4318 98.5443 26.1198 109.178C27.5432 118.671 29.1412 128.438 30.0017 138.136C31.2971 152.024 30.9564 161.408 28.5134 173.055C25.3194 188.724 24.5111 200.64 25.955 211.737C26.7595 218.081 28.5756 224.32 31.3733 230.164C42.4045 253.413 66.6041 268.43 91.3666 267.759C103.018 267.426 132.897 262.572 158.414 224.136C161.836 219.107 165.068 213.659 168.331 208.5C176.32 195.401 184.712 181.968 195.687 170.896C198.467 168.124 201.277 165.641 204.375 163.129C215.316 154.543 223.085 151.984 235.851 148.322C250.466 144.176 262.21 137.698 270.793 128.92C287.403 113.027 290.419 88.6121 278.834 64.252Z" fill="url(#paint10_linear_16_1701)"/>
</g>
<defs>
<linearGradient id="paint0_linear_16_1701" x1="122.965" y1="217.655" x2="212.787" y2="70.7052" gradientUnits="userSpaceOnUse">
<stop offset="0.1622" stop-color="white"/>
<stop offset="0.8891" stop-color="white" stop-opacity="0"/>
</linearGradient>
<linearGradient id="paint1_linear_16_1701" x1="113.365" y1="220.131" x2="209.553" y2="62.7659" gradientUnits="userSpaceOnUse">
<stop offset="0.1622" stop-color="white"/>
<stop offset="0.8891" stop-color="white" stop-opacity="0"/>
</linearGradient>
<linearGradient id="paint2_linear_16_1701" x1="103.373" y1="222.302" x2="205.92" y2="54.5332" gradientUnits="userSpaceOnUse">
<stop offset="0.1622" stop-color="white"/>
<stop offset="0.8891" stop-color="white" stop-opacity="0"/>
</linearGradient>
<linearGradient id="paint3_linear_16_1701" x1="93.5379" y1="224.739" x2="202.54" y2="46.4084" gradientUnits="userSpaceOnUse">
<stop offset="0.1622" stop-color="white"/>
<stop offset="0.8891" stop-color="white" stop-opacity="0"/>
</linearGradient>
<linearGradient id="paint4_linear_16_1701" x1="84.5527" y1="227.602" x2="199.998" y2="38.7306" gradientUnits="userSpaceOnUse">
<stop offset="0.1622" stop-color="white"/>
<stop offset="0.8891" stop-color="white" stop-opacity="0"/>
</linearGradient>
<linearGradient id="paint5_linear_16_1701" x1="76.6696" y1="231.128" x2="198.581" y2="31.6785" gradientUnits="userSpaceOnUse">
<stop offset="0.1622" stop-color="white"/>
<stop offset="0.8891" stop-color="white" stop-opacity="0"/>
</linearGradient>
<linearGradient id="paint6_linear_16_1701" x1="69.3838" y1="235.138" x2="197.863" y2="24.9434" gradientUnits="userSpaceOnUse">
<stop offset="0.1622" stop-color="white"/>
<stop offset="0.8891" stop-color="white" stop-opacity="0"/>
</linearGradient>
<linearGradient id="paint7_linear_16_1701" x1="62.4086" y1="239.345" x2="197.533" y2="18.2781" gradientUnits="userSpaceOnUse">
<stop offset="0.1622" stop-color="white"/>
<stop offset="0.8891" stop-color="white" stop-opacity="0"/>
</linearGradient>
<linearGradient id="paint8_linear_16_1701" x1="55.6717" y1="243.538" x2="197.466" y2="11.5598" gradientUnits="userSpaceOnUse">
<stop offset="0.1622" stop-color="white"/>
<stop offset="0.8891" stop-color="white" stop-opacity="0"/>
</linearGradient>
<linearGradient id="paint9_linear_16_1701" x1="48.9629" y1="247.905" x2="197.626" y2="4.68827" gradientUnits="userSpaceOnUse">
<stop offset="0.1622" stop-color="white"/>
<stop offset="0.8891" stop-color="white" stop-opacity="0"/>
</linearGradient>
<linearGradient id="paint10_linear_16_1701" x1="42.3128" y1="252.312" x2="198.001" y2="-2.39834" gradientUnits="userSpaceOnUse">
<stop offset="0.1622" stop-color="white"/>
<stop offset="0.8891" stop-color="white" stop-opacity="0"/>
</linearGradient>
</defs>
</svg>
