<svg width="237" height="276" viewBox="0 0 237 276" fill="none" xmlns="http://www.w3.org/2000/svg">
<g opacity="0.1">
<path d="M71.0541 75.8694C79.481 72.8183 89.7966 73.2542 96.1894 74.9977C114.351 79.9375 129.461 93.4496 139.05 103.765C150.819 116.551 161.134 132.533 167.237 147.498C175.809 168.274 177.988 190.794 173.775 211.135C171.741 220.434 168.69 226.827 164.04 231.185C162.006 233.219 159.391 234.672 156.776 235.689C151.691 237.433 146.605 237.142 142.682 234.672C135.273 230.023 134.256 219.998 135.563 212.879C136.29 208.956 137.597 205.178 138.905 201.546C140.067 198.059 141.375 194.427 142.101 190.794C144.281 179.607 141.23 166.967 133.965 156.942C128.008 148.805 118.709 141.105 109.556 136.892C105.779 135.148 102.001 133.695 98.3688 132.388C95.4629 131.371 92.5571 130.208 89.6513 129.046C84.4208 126.866 80.3527 124.397 76.7204 121.636C67.7124 114.662 58.1232 103.039 58.559 91.2702C58.559 84.151 62.9178 78.7752 71.0541 75.8694ZM156.049 233.801C158.519 232.929 160.844 231.476 162.587 229.732C166.946 225.664 169.707 219.562 171.595 210.699C175.809 190.794 173.629 168.565 165.203 148.37C149.366 109.867 118.128 83.4245 95.4629 77.177C89.6513 75.5788 79.6262 75.143 71.6352 77.9035C66.55 79.647 60.5931 83.5698 60.3025 91.4155C60.012 102.312 69.4559 113.645 77.5922 120.038C81.0792 122.798 85.002 124.978 90.0872 127.157C92.8477 128.319 95.8988 129.482 98.6594 130.499C102.437 131.806 106.214 133.259 109.992 135.003C119.436 139.362 129.025 147.352 135.273 155.779C142.828 166.24 146.024 179.462 143.845 191.23C143.118 195.008 141.811 198.64 140.648 202.272C139.341 205.905 138.178 209.537 137.452 213.315C136.29 219.707 137.161 228.715 143.554 232.929C147.041 235.108 151.545 235.399 156.049 233.801Z" fill="url(#paint0_linear_88_15699)"/>
<path d="M68.8746 68.6057C72.6522 67.298 77.0109 66.4263 81.3696 66.281C86.6001 66.1357 92.1212 66.7169 96.9158 68.1698C101.856 69.6227 106.36 71.0756 111.445 72.9644C120.162 76.3061 128.444 80.5195 136.144 85.6047C145.443 91.7069 153.434 98.6808 159.972 106.381C171.014 119.457 176.826 134.277 179.732 144.447C186.27 167.258 186.996 188.906 181.911 208.666C180.313 214.768 177.552 223.631 171.595 230.024C168.98 232.784 165.784 234.818 162.297 236.126C158.083 237.579 153.724 237.724 150.238 236.271C142.828 233.365 140.067 225.374 139.922 218.836C139.922 215.495 140.358 212.298 140.794 208.811C141.229 205.615 141.665 202.273 141.665 198.786C141.665 194.863 141.229 190.505 140.067 185.855C138.324 178.3 135.418 170.745 131.495 164.062C131.204 163.626 131.059 163.19 130.769 162.754C127.717 157.814 123.94 153.31 119 148.951C117.402 147.499 115.658 146.046 113.769 144.738C111.154 142.849 108.539 141.251 105.924 139.798C101.856 137.619 97.7875 135.875 93.7193 134.132C90.8135 132.824 87.7625 131.662 84.8566 130.209C83.1131 129.337 81.6602 128.611 80.2073 127.884C76.8656 125.996 73.8145 123.961 71.1993 121.782C61.7554 113.936 52.0208 101.151 52.4567 88.3652C52.8926 79.2119 58.7043 72.2379 68.8746 68.6057ZM161.425 234.237C164.621 233.075 167.527 231.186 169.852 228.716C175.518 222.759 178.133 214.187 179.732 208.23C184.671 188.761 183.945 167.549 177.552 145.029C173.484 130.935 166.655 117.569 158.229 107.689C151.836 100.134 143.99 93.3051 134.837 87.3482C127.282 82.4083 119 78.1948 110.573 74.9984C105.633 73.1097 101.129 71.6567 96.3346 70.2038C91.6852 68.8962 86.4548 68.1698 81.3696 68.4604C77.3015 68.6056 73.0881 69.3321 69.6011 70.6397C64.2253 72.5285 55.0719 77.4684 54.6361 88.3652C54.2002 100.279 63.6441 112.483 72.6522 120.039C75.2674 122.218 78.1732 124.107 81.3696 125.996C82.8225 126.722 84.2754 127.594 85.8736 128.32C88.7794 129.773 91.6852 130.935 94.591 132.243C98.6592 133.987 102.873 135.73 106.941 137.909C109.701 139.362 112.462 141.106 115.077 142.995C116.966 144.447 118.855 145.9 120.453 147.353C125.538 151.857 129.461 156.507 132.512 161.737C132.803 162.173 133.093 162.609 133.238 163.045C137.161 169.873 140.212 177.719 142.101 185.565C143.264 190.359 143.699 195.009 143.699 199.077C143.699 202.709 143.264 206.196 142.828 209.392C142.392 212.734 141.956 215.931 141.956 219.127C142.101 224.939 144.426 231.913 150.819 234.528C154.015 235.69 157.647 235.545 161.425 234.237Z" fill="url(#paint1_linear_88_15699)"/>
<path d="M66.5495 61.4857C70.6176 60.0327 75.1216 59.161 79.6256 59.0157C85.5826 58.8704 91.8301 59.5969 97.787 61.4857C101.565 62.648 105.197 63.665 108.829 64.6821L114.35 66.2803C125.538 69.4767 134.691 72.9636 143.263 77.1771C154.741 82.8434 164.185 89.8174 171.595 97.8084C185.107 112.483 190.337 131.516 192.081 141.541C196.439 165.514 195.713 186.726 189.901 206.486C187.867 213.46 184.816 222.323 178.859 229.151C175.663 232.784 171.595 235.689 167.236 237.142C163.894 238.305 160.553 238.595 157.647 238.159C151.254 236.997 146.459 232.202 144.28 225.228C143.263 222.032 142.827 218.545 142.391 215.058C142.101 212.588 141.81 209.973 141.229 207.067C140.503 203.435 139.34 199.076 137.742 193.846C135.127 185.419 131.785 177.137 128.298 170.163C128.007 169.727 127.862 169.146 127.572 168.71C124.666 162.899 121.034 158.104 115.948 153.164C114.35 151.566 112.461 149.968 110.573 148.37C107.957 146.19 105.197 144.301 102.436 142.703C98.0776 140.088 93.5736 137.909 89.0695 135.875C86.1637 134.422 83.1126 132.969 80.3521 131.516C78.6086 130.499 77.0105 129.627 75.4123 128.755C71.78 126.576 68.7288 124.397 65.823 121.927C61.0284 117.859 45.7729 103.039 46.4993 85.6039C47.2258 74.5618 54.6356 65.6991 66.5495 61.4857ZM166.655 235.108C170.578 233.655 174.355 231.04 177.261 227.698C182.927 221.16 185.833 212.588 187.867 205.905C193.534 186.436 194.26 165.514 189.901 141.977C188.158 132.242 183.073 113.645 169.851 99.4066C162.587 91.5609 153.288 84.8775 142.101 79.2111C133.674 74.9977 124.666 71.656 113.624 68.3143L108.103 66.7161C104.47 65.6991 100.838 64.5368 96.9153 63.5197C91.1036 61.7762 85.1467 61.0498 79.335 61.1951C75.1216 61.3404 70.7629 62.0668 66.9853 63.5197C55.7979 67.4426 49.1146 75.5789 48.6787 85.6039C47.9523 102.022 62.6266 116.26 67.2759 120.183C70.0364 122.508 73.0876 124.687 76.5746 126.867C78.0275 127.738 79.6257 128.61 81.3691 129.627C84.275 131.08 87.1808 132.533 90.0866 133.986C94.5906 136.165 99.0946 138.345 103.599 140.96C106.504 142.703 109.265 144.592 112.025 146.771C114.06 148.37 115.948 150.113 117.547 151.711C122.777 156.942 126.409 161.882 129.46 167.839C129.751 168.274 129.896 168.856 130.187 169.291C133.674 176.411 137.016 184.692 139.776 193.264C141.52 198.64 142.682 202.999 143.408 206.776C143.99 209.682 144.28 212.298 144.571 214.767C145.007 218.4 145.442 221.596 146.314 224.647C147.476 228.28 150.382 234.672 158.083 236.125C160.698 236.561 163.604 236.125 166.655 235.108Z" fill="url(#paint2_linear_88_15699)"/>
<path d="M64.0793 54.221C68.438 52.6228 73.0874 51.7511 77.7367 51.6058C84.4201 51.4605 91.394 52.4775 98.5133 54.5116C104.47 56.2551 109.991 57.708 117.256 59.3062C129.606 62.0667 140.066 64.682 150.237 68.6048C163.894 73.8353 174.646 80.5187 183.218 89.0908C199.054 105.073 203.413 126.866 204.576 138.344C206.9 162.172 204.866 183.675 198.183 203.871C195.568 211.571 192.226 220.579 186.56 227.844C182.782 232.638 177.551 236.416 172.321 238.305C169.996 239.176 167.672 239.612 165.638 239.612C159.1 239.612 153.433 236.852 149.365 231.331C146.314 227.262 144.425 222.613 141.81 216.075L141.374 215.058C140.648 213.024 139.776 210.99 138.759 208.665C137.887 206.341 136.87 204.016 135.853 201.401C134.981 199.221 134.11 197.042 133.238 194.863C130.768 188.615 128.153 182.077 125.537 175.975L125.392 175.684C125.247 175.248 124.956 174.812 124.811 174.377C121.905 167.838 118.418 162.608 113.333 157.087C111.735 155.343 109.846 153.6 107.812 151.711C105.051 149.387 102.291 147.207 99.2397 145.318C94.5904 142.267 89.6506 139.652 84.856 137.037C81.9502 135.439 79.0443 133.986 76.1385 132.242C74.2497 131.225 72.5063 130.208 71.0533 129.191C67.2758 126.866 64.0793 124.251 61.0282 121.636C47.9521 109.722 40.5422 95.0477 41.1234 82.2621C41.5592 69.6218 50.2767 59.1609 64.0793 54.221ZM171.449 236.416C176.389 234.672 181.184 231.04 184.671 226.681C190.192 219.707 193.534 210.99 196.003 203.435C202.542 183.53 204.721 162.317 202.251 138.78C201.089 127.593 197.02 106.38 181.62 90.8343C173.338 82.5527 162.877 76.0146 149.51 70.7842C139.34 66.8613 129.17 64.2461 116.82 61.4856C109.555 59.8874 103.889 58.4344 97.9321 56.691C90.9582 54.6569 84.2747 53.6398 77.8819 53.7851C73.3779 53.9304 69.0192 54.8022 64.8058 56.2551C51.8749 60.9044 43.7386 70.6389 43.1575 82.5527C42.5763 94.6119 49.6956 108.705 62.3359 120.183C65.2417 122.798 68.438 125.268 72.0703 127.593C73.6685 128.61 75.2667 129.627 77.1555 130.644C80.0613 132.242 82.9671 133.84 85.8729 135.439C90.6675 138.054 95.7527 140.669 100.402 143.72C103.453 145.754 106.359 147.934 109.119 150.258C111.299 152.147 113.188 153.891 114.786 155.779C120.162 161.591 123.649 166.821 126.7 173.65C126.845 174.086 127.136 174.522 127.281 174.958L127.426 175.248C130.041 181.351 132.657 187.889 135.127 194.281C135.998 196.461 136.87 198.64 137.742 200.819C138.759 203.289 139.776 205.759 140.648 208.084C141.519 210.409 142.391 212.443 143.263 214.477L143.699 215.494C146.169 221.887 148.057 226.536 150.963 230.314C154.741 235.399 159.681 237.869 165.638 237.869C167.236 237.578 169.27 237.142 171.449 236.416Z" fill="url(#paint3_linear_88_15699)"/>
<path d="M61.4637 46.9561C66.113 45.3579 70.9076 44.3408 75.8475 44.1955C83.1121 44.0502 90.9577 45.2126 99.2393 47.6825C106.068 49.7166 112.025 51.1695 120.161 52.4771L123.212 53.0583C134.981 55.0923 146.023 56.9811 157.21 60.3228C172.902 64.9721 185.252 71.6555 194.695 80.6635C208.062 93.4491 216.198 113.354 216.78 135.438C217.361 158.539 213.874 180.188 206.028 201.691C202.832 210.263 199.199 219.416 193.678 226.826C189.029 233.074 182.782 238.014 176.389 240.338C175.226 240.774 174.064 241.065 172.902 241.355C166.073 242.663 159.68 241.5 153.723 237.578C149.074 234.527 145.151 230.313 140.938 223.194C138.177 218.835 135.707 214.041 133.383 209.391C129.315 200.674 125.682 191.085 122.195 182.077L122.05 181.786C121.905 181.205 121.614 180.769 121.469 180.188C118.563 172.633 115.367 167.402 110.136 161.155C108.393 159.121 106.649 157.232 104.47 155.198C101.709 152.582 98.6582 150.258 95.607 148.078C90.5219 144.592 85.2914 141.54 80.0609 138.489C77.1551 136.891 74.2493 135.148 71.3435 133.404C69.3094 132.242 67.566 131.079 65.9678 129.917C62.0449 127.302 58.5579 124.541 55.5068 121.636C48.9687 115.388 34.0037 98.9702 35.0208 79.3559C36.0378 64.8268 46.0629 52.4771 61.4637 46.9561ZM175.808 238.304C181.765 236.125 187.721 231.475 192.08 225.519C197.456 218.254 201.088 209.391 204.139 200.819C211.84 179.607 215.327 158.249 214.746 135.438C214.164 113.935 206.319 94.4662 193.388 82.1164C184.234 73.399 172.175 66.8609 156.775 62.3569C145.732 59.0152 134.69 57.1264 123.067 55.2376L120.016 54.6565C111.88 53.2036 105.632 51.7507 98.8035 49.7166C90.8125 47.2467 83.1121 46.0843 76.1381 46.3749C71.4888 46.5202 66.8395 47.3919 62.3355 48.9901C47.8064 54.2206 38.2172 65.8439 37.3455 79.5012C36.3284 98.2437 50.8575 114.226 57.105 120.183C60.1561 123.088 63.4978 125.704 67.2753 128.319C68.8735 129.481 70.6171 130.498 72.6511 131.806C75.5569 133.549 78.4628 135.293 81.2233 136.891C86.4538 139.942 91.8295 142.993 96.9147 146.626C100.111 148.805 103.162 151.275 106.068 154.035C108.247 156.069 110.136 158.104 111.88 160.138C117.255 166.385 120.597 172.051 123.648 179.752C123.793 180.333 124.084 180.769 124.229 181.35L124.375 181.641C127.716 190.649 131.349 200.093 135.417 208.81C137.596 213.459 140.066 218.109 142.827 222.467C147.04 229.296 150.527 233.219 155.031 236.125C160.552 239.757 166.364 240.919 172.611 239.612C173.628 239.031 174.645 238.74 175.808 238.304Z" fill="url(#paint4_linear_88_15699)"/>
<path d="M58.8492 39.692C63.7891 37.9485 68.8742 36.9314 74.1047 36.7861C82.0957 36.6409 90.5226 37.9485 100.112 40.8543C107.522 43.1789 114.205 44.4866 123.213 45.6489C126.409 46.0848 129.606 46.5206 132.802 46.8112C143.263 48.1188 154.015 49.4265 164.476 51.7511C182.201 55.8192 196.004 62.3573 206.465 71.9465C221.575 85.6039 230.147 108.269 229.275 132.242C228.549 153.745 223.609 175.684 214.31 199.076C210.678 208.084 206.755 217.528 201.234 225.519C196.004 233.219 188.449 239.467 180.603 242.663C180.167 242.809 179.731 242.954 179.295 243.099C172.757 245.424 165.928 245.424 158.519 243.244C151.835 241.21 146.169 237.287 140.793 230.895C137.306 226.827 134.11 222.032 131.204 216.801C126.991 208.956 123.213 199.802 119.29 187.743L119.145 187.453C119 186.872 118.854 186.436 118.564 185.855C115.803 177.428 112.752 171.761 107.376 165.078C105.633 162.899 103.744 160.719 101.565 158.54C98.6589 155.779 95.6077 153.019 92.4113 150.694C87.0356 146.626 81.2239 143.139 75.7029 139.652C72.9423 137.909 70.0366 136.165 67.1308 134.276C65.0967 132.969 63.2079 131.661 61.4644 130.499C57.3962 127.593 53.764 124.542 50.5676 121.491C36.3291 107.543 28.6287 90.9796 29.5004 76.16C30.3722 60.178 41.9954 45.7942 58.8492 39.692ZM178.569 241.356C179.005 241.21 179.295 241.065 179.731 240.92C187.141 237.869 194.406 231.912 199.345 224.647C204.721 216.801 208.644 207.503 212.131 198.64C221.284 175.394 226.224 153.745 226.951 132.533C227.822 109.141 219.541 87.2021 204.866 73.8353C194.696 64.5367 181.329 58.1439 163.894 54.221C153.579 51.8964 142.827 50.5888 132.512 49.2812C129.315 48.8453 126.119 48.5547 122.922 48.1188C113.914 46.9565 107.086 45.5036 99.5306 43.179C90.232 40.2731 81.9504 39.1108 74.25 39.2561C69.3101 39.4014 64.3702 40.2731 59.7209 42.0166C43.5936 47.683 32.5516 61.3403 31.5345 76.7411C30.6628 90.9796 38.0726 106.816 51.8752 120.474C55.0716 123.525 58.7038 126.576 62.6267 129.336C64.3702 130.499 66.1137 131.806 68.2931 133.114C71.0536 135.003 73.9595 136.746 76.8653 138.49C82.5316 141.977 88.3432 145.609 93.8642 149.677C97.2059 152.147 100.402 154.908 103.308 157.813C105.487 159.993 107.522 162.317 109.41 164.497C114.931 171.471 118.128 177.137 121.034 185.855C121.179 186.436 121.324 186.872 121.615 187.453L121.76 187.743C125.683 199.657 129.461 208.81 133.529 216.511C136.289 221.596 139.486 226.245 142.827 230.168C148.058 236.27 153.288 239.903 159.536 241.791C166.074 243.535 172.467 243.535 178.569 241.356Z" fill="url(#paint5_linear_88_15699)"/>
<path d="M56.2348 32.572C61.4652 30.6832 66.841 29.6662 72.2168 29.5209C80.7889 29.2303 90.2328 30.8285 100.839 34.0249C108.975 36.4949 116.24 37.9478 126.12 38.9648C130.914 39.4007 135.854 39.8365 140.649 40.1271C150.819 40.8536 161.28 41.7253 171.45 43.4688C191.21 46.8105 206.465 53.3486 217.943 63.3737C238.139 80.9539 243.369 108.85 241.481 129.19C239.592 149.386 233.925 169.581 222.302 196.751L222.012 197.332C218.089 206.485 214.021 216.074 208.645 224.501C203.124 233.073 195.569 240.338 188.159 244.261C180.313 248.329 171.886 250.072 163.314 249.201C154.742 248.474 147.332 244.987 140.649 239.03C136.435 235.107 132.512 230.313 129.171 224.792C124.086 216.51 120.017 206.34 116.385 193.99L116.24 193.554C116.095 192.973 115.949 192.537 115.804 191.956C113.479 183.965 110.864 177.718 104.762 169.581C103.018 167.257 100.984 164.932 98.805 162.607C95.8991 159.556 92.7028 156.65 89.2158 153.89C83.4042 149.386 77.3019 145.318 71.1997 141.395C68.4392 139.651 65.5334 137.763 62.7729 135.874C60.5935 134.421 58.7047 132.968 56.8159 131.66C52.6024 128.609 48.8249 125.268 45.338 121.926C25.1425 101.585 23.1085 82.8426 23.8349 73.6893C24.7067 55.2374 37.4922 39.1101 56.2348 32.572ZM181.33 244.987C183.219 244.261 185.253 243.389 186.997 242.517C194.261 238.74 201.38 231.766 206.756 223.484C212.132 215.203 216.055 205.759 219.978 196.605L220.268 196.024C231.891 169.145 237.558 149.095 239.301 129.19C241.045 109.431 236.105 82.2615 216.491 65.1171C205.303 55.3826 190.483 48.9899 171.015 45.6482C160.844 43.9047 150.383 43.0329 140.358 42.3065C135.564 41.8706 130.624 41.58 125.684 41.1442C115.804 40.1271 108.249 38.6742 99.9673 36.2043C89.6516 33.0079 80.4983 31.555 72.0714 31.7003C66.8409 31.8456 61.7558 32.8626 56.6706 34.6061C38.7999 40.9989 26.5954 56.2544 25.4331 73.544C24.8519 82.4068 26.886 100.423 46.355 120.182C49.6967 123.524 53.4742 126.72 57.5423 129.772C59.2858 131.079 61.1746 132.387 63.354 133.985C66.1145 135.874 69.0204 137.763 71.7809 139.506C77.8831 143.429 84.1306 147.497 89.9423 152.146C93.4292 154.907 96.7709 157.958 99.6767 161.009C102.001 163.334 104.035 165.804 105.924 168.274C112.317 176.7 114.932 183.093 117.402 191.375C117.547 191.956 117.693 192.392 117.838 192.973L117.983 193.409C121.47 205.613 125.538 215.493 130.478 223.775C133.82 229.15 137.452 233.8 141.666 237.577C148.059 243.389 155.033 246.585 163.024 247.312C169.562 247.893 175.519 247.167 181.33 244.987Z" fill="url(#paint6_linear_88_15699)"/>
<path d="M53.4735 25.3082C58.9946 23.4194 64.661 22.2571 70.3273 22.1118C79.7712 21.8212 89.6509 23.5647 101.419 27.197C110.282 29.9575 117.983 31.4104 128.879 32.1369C135.127 32.5727 141.52 32.8633 147.622 33.0086C157.792 33.4445 168.253 33.7351 178.424 35.0427C200.217 37.8032 216.926 44.196 229.421 54.8022C248.018 70.4937 257.607 98.5348 253.684 126.14C250.197 150.694 239.591 173.795 230.147 194.281C229.421 195.734 228.84 197.187 228.113 198.64C224.336 206.922 220.413 215.494 215.763 223.34C209.952 232.929 202.978 240.629 195.277 245.714C186.996 251.381 177.407 254.577 167.527 255.013C157.356 255.449 148.058 252.688 140.067 246.877C134.982 243.099 130.332 238.305 126.555 232.348C120.743 223.63 116.239 212.733 112.898 199.802L112.316 197.478C109.992 188.47 107.522 181.932 101.274 173.36C99.3855 170.744 97.3514 168.274 95.0267 165.804C92.1209 162.608 88.7792 159.557 85.1469 156.361C79.0447 151.275 72.3613 146.626 65.8232 142.267C63.0627 140.379 60.3022 138.49 57.687 136.601C55.3623 135.003 53.3283 133.405 51.4395 132.097C47.0808 128.901 43.1579 125.268 39.5256 121.491C30.5176 112.192 15.8432 93.159 17.4414 70.2031C19.0396 50.2982 33.1328 32.5727 53.4735 25.3082ZM182.492 250.218C186.56 248.765 190.628 246.731 194.26 244.261C201.67 239.322 208.499 231.766 214.165 222.468C218.815 214.767 222.737 206.195 226.37 198.059C227.096 196.606 227.677 195.153 228.404 193.7C237.702 173.36 248.309 150.258 251.65 126.14C255.428 99.2612 246.129 71.9465 228.113 56.691C215.909 46.3754 199.491 40.1279 178.278 37.3673C168.108 36.0597 157.647 35.6238 147.622 35.3333C141.52 35.0427 135.127 34.8974 128.879 34.4615C117.837 33.7351 110.137 32.2822 100.984 29.5216C89.3604 25.8894 79.6259 24.2912 70.4726 24.5818C64.9515 24.727 59.5757 25.7441 54.2 27.6328C34.5857 34.6068 21.2189 51.6059 19.766 70.7842C18.3131 92.8684 32.697 111.466 41.2691 120.474C44.7561 124.106 48.679 127.593 52.8924 130.789C54.7812 132.242 56.8152 133.695 58.9946 135.293C61.7551 137.182 64.5157 139.071 67.1309 140.96C73.669 145.464 80.3523 150.113 86.5998 155.198C90.3774 158.395 93.7191 161.446 96.7702 164.787C99.0948 167.257 101.274 169.873 103.163 172.633C109.556 181.496 112.026 188.179 114.496 197.478L115.077 199.802C118.273 212.588 122.777 223.194 128.444 231.766C132.221 237.433 136.58 242.082 141.52 245.714C149.075 251.235 157.938 253.851 167.672 253.415C172.757 252.834 177.697 251.962 182.492 250.218Z" fill="url(#paint7_linear_88_15699)"/>
<path d="M50.7121 18.1888C56.5237 16.1548 62.4805 14.9925 68.4375 14.8472C78.4625 14.5566 89.2141 16.4454 102.145 20.5135C111.879 23.5646 120.161 24.8722 131.784 25.4534C139.339 25.8893 147.04 25.8893 154.45 25.8893C164.62 25.8893 175.226 26.0345 185.542 26.9063C209.224 28.9404 227.386 35.3332 241.043 46.5206C261.82 63.5196 271.699 93.5948 266.033 123.379C262.11 144.156 252.957 162.753 243.222 182.367C241.624 185.709 239.881 188.906 238.282 192.247C236.83 195.153 235.522 198.059 234.214 200.819C230.873 208.084 227.24 215.494 223.318 222.468C217.361 232.929 210.387 241.356 202.977 247.603C197.31 252.252 191.063 255.739 184.234 258.209C180.311 259.662 176.389 260.534 172.32 261.115C160.407 262.859 149.655 260.825 140.066 255.013C134.109 251.381 128.878 246.441 124.52 240.339C117.982 231.185 113.187 219.707 110.136 206.05L109.991 205.469C109.845 204.888 109.7 204.161 109.555 203.58C107.23 193.555 104.906 186.871 98.658 177.718C96.7692 174.958 94.5898 172.197 92.2652 169.582C89.2141 166.095 85.8724 162.753 81.9496 159.412C75.4115 153.745 68.2922 148.66 61.3183 143.72C58.703 141.831 55.9425 139.943 53.3273 137.908C50.8573 136.165 48.8232 134.567 46.7892 132.969C42.2852 129.482 38.217 125.704 34.4395 121.636C18.4575 104.637 10.4664 85.3132 11.774 67.2971C13.3722 45.6488 29.0637 25.8893 50.7121 18.1888ZM183.508 256.03C190.046 253.705 196.148 250.218 201.669 245.86C208.934 239.903 215.617 231.621 221.574 221.305C225.497 214.331 228.984 206.922 232.471 199.802C233.778 196.897 235.231 193.991 236.539 191.085C238.137 187.743 239.735 184.402 241.479 181.205C251.213 161.736 260.367 143.284 264.144 122.798C269.52 93.8854 260.076 64.5366 239.881 47.9735C226.659 37.0766 208.788 30.8291 185.542 28.7951C175.226 27.9233 164.765 27.9233 154.74 27.778C147.33 27.778 139.63 27.778 131.93 27.3422C120.161 26.761 111.589 25.4534 101.709 22.257C88.9235 18.1888 78.4625 16.4454 68.7281 16.7359C62.9164 16.8812 57.2501 17.8983 51.5838 19.9324C30.6619 27.3422 15.5517 46.3753 14.0987 67.2971C12.5005 90.8343 27.3202 110.449 36.3282 120.038C39.9605 123.961 44.0286 127.738 48.3873 131.08C50.2761 132.533 52.4555 134.131 54.7802 136.02C57.3954 137.908 60.1559 139.943 62.7712 141.831C69.7451 146.771 77.0097 152.002 83.5477 157.668C87.4706 161.155 90.9576 164.497 94.0087 167.984C96.3333 170.744 98.5127 173.505 100.547 176.265C107.085 185.709 109.41 192.683 111.734 202.853C111.879 203.435 112.025 204.016 112.17 204.742L112.315 205.323C115.366 218.69 120.016 230.023 126.409 238.886C130.622 244.843 135.707 249.492 141.373 252.979C150.527 258.5 160.842 260.389 172.175 258.79C175.953 258.355 179.73 257.483 183.508 256.03Z" fill="url(#paint8_linear_88_15699)"/>
<path d="M48.0963 10.9243C54.1985 8.745 60.446 7.58267 66.8388 7.43738C77.4451 7.14679 89.0683 9.18085 103.162 13.5396C113.477 16.736 122.485 18.1889 134.98 18.4795C143.698 18.7701 152.415 18.4795 160.987 18.3342C171.448 18.0436 182.2 17.753 192.951 18.3342C218.232 19.6418 238.427 26.1799 252.956 37.8031C275.622 55.8192 285.937 88.8002 278.673 120.183C274.314 139.071 264.725 156.36 255.572 173.214C252.666 178.59 249.469 184.111 246.709 189.777C244.384 194.136 242.205 198.785 240.171 203.144C237.265 209.246 234.214 215.494 231.017 221.451C224.625 233.074 217.941 242.227 210.677 249.201C203.558 255.885 194.84 261.26 185.541 264.602C182.781 265.619 179.875 266.346 177.115 267.072C163.748 269.978 150.962 268.67 140.065 263.004C133.382 259.517 127.425 254.577 122.485 248.184C115.221 238.74 110.135 226.681 107.23 212.152C107.084 211.28 106.939 210.409 106.649 209.537C104.469 198.495 102.29 191.666 95.897 181.932C93.8629 178.881 91.6836 175.975 89.3589 173.214C86.3078 169.582 82.8208 165.95 78.7527 162.317C71.924 156.07 64.2236 150.404 56.8137 144.883C54.1985 142.994 51.5833 140.96 49.1133 139.071C46.6434 137.182 44.4641 135.439 42.43 133.84C37.7807 130.063 33.422 125.995 29.6444 121.781C13.2266 103.91 4.94498 83.5698 6.39789 64.5367C7.8508 40.709 24.7045 19.2059 48.0963 10.9243ZM184.524 262.423C193.678 259.226 202.105 253.996 208.933 247.458C216.053 240.629 222.591 231.766 228.838 220.288C232.035 214.332 235.086 208.084 237.991 202.127C240.171 197.768 242.35 193.119 244.53 188.76C247.435 183.239 250.486 177.573 253.392 172.197C262.546 155.634 271.99 138.344 276.348 119.747C283.322 89.2361 273.297 56.9816 251.358 39.5467C237.265 28.3593 217.505 21.9665 192.515 20.6588C181.909 20.0777 171.158 20.3683 160.842 20.6588C152.27 20.8041 143.407 21.0947 134.69 20.8041C121.904 20.5135 112.896 19.0606 102.29 15.7189C88.3419 11.3602 77.0092 9.47144 66.6936 9.61673C60.5914 9.76202 54.4891 10.9243 48.6775 12.9584C26.1574 20.9494 9.7395 41.726 8.1413 64.5367C6.83368 82.9886 14.8247 102.748 30.952 120.183C34.7296 124.397 39.0883 128.319 43.5923 131.952C45.6264 133.55 47.8057 135.293 50.2757 137.182C52.8909 139.071 55.3609 141.105 57.9761 142.994C65.386 148.515 73.0863 154.181 80.0603 160.574C84.1284 164.351 87.7607 167.984 90.8118 171.616C93.1365 174.377 95.4611 177.428 97.4952 180.479C104.033 190.504 106.213 197.623 108.537 208.81C108.683 209.682 108.828 210.554 109.118 211.426C112.024 225.664 116.964 237.433 123.938 246.586C128.587 252.688 134.254 257.483 140.792 260.825C151.253 266.2 163.457 267.508 176.388 264.602C179.149 264.166 181.909 263.44 184.524 262.423Z" fill="url(#paint9_linear_88_15699)"/>
<path d="M45.3367 3.65985C51.7295 1.33517 58.2676 0.172852 64.951 0.0275574C76.429 -0.263 88.3428 1.77106 103.889 6.71097C115.076 10.1979 124.23 11.6508 137.887 11.6508C147.621 11.7961 157.501 11.215 166.945 10.7791C177.697 10.1979 188.884 9.61676 199.926 9.90735C227.241 10.6338 248.889 17.0266 264.435 29.0857C288.844 48.1188 299.741 84.151 291.023 116.841C286.229 134.712 276.349 150.839 266.905 166.531C262.837 173.214 258.624 180.188 254.846 187.162C251.65 193.119 248.599 199.512 245.547 205.614C237.992 221.306 230.147 237.578 218.087 250.509C209.515 259.517 198.473 266.927 186.559 271.14C160.262 280.439 135.417 274.773 120.016 255.885C112.025 246.15 106.649 233.365 103.889 218.109C101.564 204.888 99.966 197.478 92.7015 186C90.6674 182.803 88.4881 179.607 86.0182 176.701C76.2837 164.787 63.934 155.198 51.8748 145.9C47.0802 142.267 42.1403 138.344 37.3457 134.422C1.02304 104.346 -0.72052 73.3995 0.151215 61.3403C2.1853 35.7691 20.3467 12.6679 45.3367 3.65985ZM185.833 269.106C197.456 265.038 208.208 257.919 216.344 249.201C228.113 236.416 235.958 220.434 243.513 204.888C246.419 198.785 249.616 192.393 252.812 186.29C256.59 179.316 260.803 172.342 265.016 165.659C274.46 150.258 284.195 134.276 288.989 116.551C297.562 84.5868 286.955 49.4265 263.273 30.9745C248.163 19.206 226.805 12.8132 200.071 12.232C189.175 11.9414 177.987 12.5226 167.236 13.1038C157.646 13.5396 147.767 14.1208 138.032 13.9755C124.084 13.8302 114.786 12.5226 103.453 8.89032C88.1975 4.09573 76.429 2.06165 65.2416 2.35223C58.8488 2.49753 52.456 3.65985 46.3538 5.8392C22.0902 14.4114 4.6553 36.9315 2.76654 61.6309C1.89478 73.2542 3.63824 103.475 39.2345 132.823C43.8838 136.746 48.969 140.524 53.7636 144.301C65.968 153.6 78.463 163.334 88.3428 175.394C90.8127 178.445 92.9921 181.496 95.1715 184.838C102.581 196.606 104.325 204.597 106.649 217.673C109.265 232.638 114.495 244.988 122.341 254.432C136.434 272.593 160.407 278.114 185.833 269.106Z" fill="url(#paint10_linear_88_15699)"/>
</g>
<defs>
<linearGradient id="paint0_linear_88_15699" x1="49.3414" y1="98.2326" x2="186.234" y2="202.745" gradientUnits="userSpaceOnUse">
<stop offset="0.1622" stop-color="white"/>
<stop offset="0.8891" stop-color="white" stop-opacity="0"/>
</linearGradient>
<linearGradient id="paint1_linear_88_15699" x1="47.8696" y1="88.4308" x2="194.464" y2="200.35" gradientUnits="userSpaceOnUse">
<stop offset="0.1622" stop-color="white"/>
<stop offset="0.8891" stop-color="white" stop-opacity="0"/>
</linearGradient>
<linearGradient id="paint2_linear_88_15699" x1="46.7413" y1="78.2672" x2="203.027" y2="197.586" gradientUnits="userSpaceOnUse">
<stop offset="0.1622" stop-color="white"/>
<stop offset="0.8891" stop-color="white" stop-opacity="0"/>
</linearGradient>
<linearGradient id="paint3_linear_88_15699" x1="45.3326" y1="68.2327" x2="211.457" y2="195.063" gradientUnits="userSpaceOnUse">
<stop offset="0.1622" stop-color="white"/>
<stop offset="0.8891" stop-color="white" stop-opacity="0"/>
</linearGradient>
<linearGradient id="paint4_linear_88_15699" x1="43.4126" y1="58.9978" x2="219.356" y2="193.324" gradientUnits="userSpaceOnUse">
<stop offset="0.1622" stop-color="white"/>
<stop offset="0.8891" stop-color="white" stop-opacity="0"/>
</linearGradient>
<linearGradient id="paint5_linear_88_15699" x1="40.7196" y1="50.7955" x2="226.518" y2="192.645" gradientUnits="userSpaceOnUse">
<stop offset="0.1622" stop-color="white"/>
<stop offset="0.8891" stop-color="white" stop-opacity="0"/>
</linearGradient>
<linearGradient id="paint6_linear_88_15699" x1="37.4845" y1="43.1322" x2="233.292" y2="192.624" gradientUnits="userSpaceOnUse">
<stop offset="0.1622" stop-color="white"/>
<stop offset="0.8891" stop-color="white" stop-opacity="0"/>
</linearGradient>
<linearGradient id="paint7_linear_88_15699" x1="34.0183" y1="35.76" x2="239.955" y2="192.985" gradientUnits="userSpaceOnUse">
<stop offset="0.1622" stop-color="white"/>
<stop offset="0.8891" stop-color="white" stop-opacity="0"/>
</linearGradient>
<linearGradient id="paint8_linear_88_15699" x1="30.5433" y1="28.6263" x2="246.644" y2="193.611" gradientUnits="userSpaceOnUse">
<stop offset="0.1622" stop-color="white"/>
<stop offset="0.8891" stop-color="white" stop-opacity="0"/>
</linearGradient>
<linearGradient id="paint9_linear_88_15699" x1="26.8912" y1="21.5034" x2="253.461" y2="194.481" gradientUnits="userSpaceOnUse">
<stop offset="0.1622" stop-color="white"/>
<stop offset="0.8891" stop-color="white" stop-opacity="0"/>
</linearGradient>
<linearGradient id="paint10_linear_88_15699" x1="23.1955" y1="14.4339" x2="260.472" y2="195.586" gradientUnits="userSpaceOnUse">
<stop offset="0.1622" stop-color="white"/>
<stop offset="0.8891" stop-color="white" stop-opacity="0"/>
</linearGradient>
</defs>
</svg>
